<svg width="107" height="26" viewBox="0 0 107 26" fill="none" xmlns="http://www.w3.org/2000/svg">
<path d="M38.7031 19.4723V6.45703H39.8897V19.4723H38.7031Z" fill="white"/>
<path d="M55.9237 6.41016V17.4956L46.6996 6.41016H45.6875V14.4354C45.889 14.3948 46.0971 14.3729 46.3106 14.3729C46.5035 14.3729 46.6919 14.3906 46.875 14.4239V8.33163L56.1383 19.4733H57.1112V6.41016H55.9237Z" fill="white"/>
<path d="M48.0406 18.7883C48.0809 18.7467 48.1191 18.704 48.1561 18.6603C48.1605 18.6551 48.1648 18.6499 48.1692 18.6436C48.2062 18.5989 48.2422 18.552 48.276 18.5052C48.276 18.5052 48.277 18.5031 48.2781 18.5021C48.3108 18.4552 48.3424 18.4063 48.3718 18.3563C48.3751 18.3511 48.3784 18.3459 48.3805 18.3407C48.4089 18.2928 48.435 18.2429 48.459 18.1929C48.4633 18.1846 48.4677 18.1752 48.471 18.1669C48.4949 18.1169 48.5167 18.0649 48.5363 18.0128C48.5385 18.0066 48.5407 17.9993 48.5429 17.9931C48.5614 17.9421 48.5788 17.889 48.5941 17.8359C48.5952 17.8317 48.5973 17.8265 48.5984 17.8224C48.6137 17.7682 48.6257 17.7131 48.6366 17.6569C48.6387 17.6464 48.6409 17.636 48.642 17.6256C48.6518 17.5705 48.6594 17.5153 48.6649 17.4591C48.6649 17.4487 48.666 17.4393 48.6671 17.4289C48.6714 17.3706 48.6747 17.3113 48.6747 17.2509C48.6747 17.1916 48.6714 17.1322 48.6671 17.0729C48.6671 17.0625 48.666 17.0531 48.6649 17.0427C48.6594 16.9865 48.6518 16.9314 48.642 16.8762C48.6398 16.8658 48.6376 16.8554 48.6366 16.845C48.6257 16.7888 48.6137 16.7336 48.5984 16.6795C48.5973 16.6753 48.5952 16.6701 48.5941 16.6659C48.5788 16.6128 48.5625 16.5608 48.5429 16.5088C48.5407 16.5025 48.5385 16.4952 48.5352 16.489C48.5156 16.4369 48.4938 16.3849 48.4699 16.3349C48.4655 16.3266 48.4622 16.3172 48.4579 16.3089C48.4339 16.2589 48.4078 16.209 48.3794 16.1601C48.3762 16.1549 48.3729 16.1497 48.3707 16.1444C48.3413 16.0945 48.3108 16.0456 48.277 15.9987C48.277 15.9987 48.276 15.9966 48.2749 15.9956C48.2411 15.9477 48.2051 15.9019 48.1681 15.8572C48.1637 15.852 48.1594 15.8468 48.155 15.8405C48.118 15.7968 48.0799 15.7541 48.0395 15.7125C48.0363 15.7083 48.0319 15.7052 48.0287 15.701C47.9437 15.6157 47.8522 15.5355 47.7541 15.4637C47.7519 15.4616 47.7498 15.4606 47.7465 15.4585C47.6975 15.4231 47.6474 15.3888 47.5962 15.3565C47.5929 15.3544 47.5896 15.3523 47.5863 15.3503C47.4262 15.2524 47.2541 15.1723 47.0711 15.1129C47.0678 15.1119 47.0645 15.1108 47.0612 15.1098C47.0002 15.09 46.9392 15.0734 46.876 15.0578C46.8336 15.0474 46.7911 15.039 46.7475 15.0317C46.741 15.0307 46.7344 15.0297 46.7279 15.0286C46.6919 15.0224 46.6549 15.0172 46.6179 15.012C46.608 15.0109 46.5972 15.0099 46.5873 15.0078C46.5525 15.0036 46.5176 15.0005 46.4828 14.9984C46.4719 14.9984 46.461 14.9964 46.449 14.9964C46.4043 14.9943 46.3586 14.9922 46.3128 14.9922C46.2638 14.9922 46.2148 14.9943 46.1657 14.9974C46.1538 14.9974 46.1418 14.9995 46.1298 15.0005C46.0895 15.0036 46.0503 15.0078 46.01 15.012C46.0012 15.012 45.9936 15.014 45.9849 15.0151C45.8836 15.0286 45.7855 15.0484 45.6886 15.0734C45.5644 15.1056 45.4435 15.1483 45.3291 15.1983C45.3291 15.1983 45.3269 15.1983 45.3258 15.1993C45.2681 15.2243 45.2125 15.2524 45.158 15.2816C45.158 15.2816 45.158 15.2816 45.1569 15.2816C45.048 15.3398 44.9445 15.4065 44.8475 15.4804C44.8454 15.4824 44.8432 15.4835 44.841 15.4856C44.7931 15.522 44.7473 15.5595 44.7037 15.599C44.7016 15.6011 44.6994 15.6032 44.6961 15.6053C44.6079 15.6844 44.5273 15.7697 44.4521 15.8603C44.4488 15.8645 44.4445 15.8697 44.4412 15.8738C44.4052 15.9175 44.3715 15.9633 44.3399 16.0091C44.3366 16.0143 44.3322 16.0195 44.329 16.0258C44.2658 16.1195 44.2091 16.2184 44.1601 16.3214C44.1568 16.3287 44.1525 16.337 44.1492 16.3443C44.1263 16.3943 44.1056 16.4442 44.0871 16.4952C44.0839 16.5036 44.0806 16.5129 44.0784 16.5212C44.0403 16.6264 44.0109 16.7357 43.9902 16.8481C43.988 16.8585 43.9858 16.8679 43.9847 16.8783C43.9749 16.9324 43.9684 16.9865 43.9629 17.0417C43.9629 17.0521 43.9608 17.0625 43.9608 17.0729C43.9564 17.1302 43.9531 17.1885 43.9531 17.2467C43.9531 17.305 43.9564 17.3633 43.9608 17.4206C43.9608 17.431 43.9618 17.4414 43.9629 17.4518C43.9684 17.507 43.9749 17.5611 43.9847 17.6152C43.9869 17.6256 43.988 17.635 43.9902 17.6454C44.0109 17.7578 44.0403 17.8661 44.0784 17.9722C44.0817 17.9806 44.0839 17.9899 44.0871 17.9983C44.1056 18.0493 44.1274 18.1003 44.1492 18.1492C44.1525 18.1575 44.1568 18.1648 44.1601 18.1721C44.2091 18.2751 44.2658 18.374 44.329 18.4677C44.3322 18.4729 44.3366 18.4781 44.3399 18.4844C44.3715 18.5312 44.4052 18.576 44.4412 18.6197C44.4445 18.6238 44.4488 18.629 44.4521 18.6332C44.5262 18.7238 44.6079 18.8091 44.6961 18.8882C44.6983 18.8903 44.7005 18.8924 44.7026 18.8945C44.7473 18.934 44.7931 18.9715 44.8399 19.0079C44.8421 19.01 44.8443 19.011 44.8465 19.0131C44.9434 19.087 45.0469 19.1536 45.1558 19.213C45.1558 19.213 45.1558 19.213 45.1569 19.213C45.2114 19.2421 45.2681 19.2702 45.3258 19.2952C45.3258 19.2952 45.328 19.2952 45.328 19.2963C45.5034 19.3733 45.6908 19.4305 45.8868 19.4649C45.9544 19.4763 46.0241 19.4857 46.0938 19.4919C46.0971 19.4919 46.0993 19.4919 46.1026 19.4919C46.1712 19.4982 46.2409 19.5013 46.3117 19.5013C46.3825 19.5013 46.4523 19.4982 46.5209 19.4919C46.5242 19.4919 46.5263 19.4919 46.5296 19.4919C46.5993 19.4857 46.668 19.4763 46.7366 19.4649C46.8477 19.4451 46.9567 19.4191 47.0612 19.3847C47.0645 19.3847 47.0678 19.3826 47.07 19.3816C47.253 19.3223 47.4262 19.2421 47.5853 19.1432C47.5885 19.1412 47.5918 19.1391 47.5951 19.137C47.6463 19.1047 47.6975 19.0714 47.7454 19.035C47.7476 19.0329 47.7498 19.0319 47.753 19.0298C47.8511 18.958 47.9426 18.8778 48.0276 18.7925C48.0308 18.7883 48.0352 18.7852 48.0385 18.781L48.0406 18.7883ZM48.0297 17.405C48.0287 17.4206 48.0254 17.4372 48.0232 17.4528C48.0189 17.4872 48.0134 17.5215 48.0069 17.5559C48.0036 17.5736 47.9992 17.5913 47.996 17.609C47.9883 17.6412 47.9796 17.6735 47.9698 17.7058C47.9655 17.7224 47.96 17.738 47.9557 17.7547C47.9404 17.7995 47.9241 17.8432 47.9055 17.8869C47.899 17.9015 47.8914 17.916 47.8838 17.9316C47.8707 17.9598 47.8565 17.9879 47.8413 18.016C47.8293 18.0368 47.8173 18.0576 47.8053 18.0774C47.7933 18.0972 47.7803 18.1169 47.7672 18.1367C47.7519 18.1586 47.7378 18.1804 47.7214 18.2012C47.7105 18.2169 47.6975 18.2314 47.6855 18.246C47.6179 18.3314 47.5417 18.4105 47.4578 18.4812C47.4524 18.4854 47.448 18.4906 47.4425 18.4948C47.4142 18.5187 47.3837 18.5416 47.3532 18.5635C47.3467 18.5687 47.3401 18.5728 47.3336 18.577C47.302 18.5999 47.2693 18.6218 47.2356 18.6415C47.1244 18.7092 47.0046 18.7644 46.8782 18.806C46.8379 18.8195 46.7976 18.831 46.7562 18.8414C46.7464 18.8435 46.7366 18.8466 46.7279 18.8487C46.693 18.857 46.6571 18.8643 46.6211 18.8705C46.5993 18.8747 46.5775 18.8768 46.5558 18.8799C46.5285 18.8841 46.5013 18.8872 46.4741 18.8903C46.4218 18.8945 46.3695 18.8976 46.3161 18.8976C46.3161 18.8976 46.3139 18.8976 46.3128 18.8976C46.2573 18.8976 46.2028 18.8945 46.1494 18.8893C46.108 18.8851 46.0688 18.8789 46.0285 18.8726C46.0165 18.8705 46.0034 18.8695 45.9914 18.8674C45.9413 18.858 45.8912 18.8466 45.8422 18.8331C45.8422 18.8331 45.8411 18.8331 45.84 18.8331C45.7899 18.8195 45.7409 18.8029 45.6918 18.7852C45.6537 18.7706 45.6167 18.755 45.5796 18.7394C45.5753 18.7373 45.5698 18.7352 45.5655 18.7331C45.4195 18.6655 45.2855 18.5791 45.1667 18.4771C45.158 18.4687 45.1482 18.4615 45.1395 18.4531C45.1155 18.4313 45.0916 18.4094 45.0687 18.3865C45.0589 18.3761 45.0491 18.3657 45.0393 18.3553C45.0022 18.3157 44.9663 18.2741 44.9325 18.2314C44.9216 18.2169 44.9096 18.2023 44.8987 18.1877C44.8846 18.1679 44.8715 18.1471 44.8573 18.1273C44.8443 18.1065 44.8301 18.0867 44.8181 18.0649C44.8061 18.0451 44.7952 18.0253 44.7844 18.0056C44.7702 17.9806 44.7582 17.9545 44.7451 17.9285C44.7375 17.9119 44.7288 17.8942 44.7212 17.8775C44.7026 17.8348 44.6863 17.7911 44.6711 17.7474C44.6667 17.736 44.6645 17.7235 44.6602 17.712C44.6493 17.6766 44.6395 17.6402 44.6307 17.6038C44.6275 17.5871 44.6242 17.5715 44.6209 17.5548C44.6144 17.5205 44.609 17.4851 44.6046 17.4508C44.6024 17.4351 44.6002 17.4195 44.5992 17.4039C44.5948 17.354 44.5915 17.303 44.5915 17.252C44.5915 17.2009 44.5948 17.1499 44.5992 17.1C44.6002 17.0844 44.6024 17.0688 44.6046 17.0531C44.609 17.0178 44.6144 16.9834 44.6209 16.9491C44.6242 16.9324 44.6275 16.9157 44.6307 16.9001C44.6395 16.8637 44.6493 16.8273 44.6602 16.7919C44.6634 16.7804 44.6667 16.7679 44.6711 16.7565C44.6863 16.7117 44.7026 16.6691 44.7212 16.6264C44.7288 16.6087 44.7375 16.592 44.7451 16.5754C44.7571 16.5494 44.7702 16.5244 44.7833 16.4983C44.7942 16.4786 44.8051 16.4588 44.817 16.439C44.8301 16.4182 44.8432 16.3974 44.8563 16.3766C44.8693 16.3557 44.8824 16.336 44.8977 16.3162C44.9085 16.3016 44.9205 16.287 44.9314 16.2725C44.9652 16.2298 45.0001 16.1882 45.0382 16.1486C45.048 16.1382 45.0578 16.1278 45.0676 16.1174C45.0905 16.0945 45.1144 16.0726 45.1384 16.0508C45.1471 16.0424 45.1569 16.0352 45.1657 16.0268C45.2844 15.9248 45.4184 15.8384 45.5644 15.7708C45.5698 15.7687 45.5742 15.7666 45.5796 15.7635C45.6156 15.7468 45.6526 15.7312 45.6908 15.7177C45.7387 15.7 45.7877 15.6833 45.8378 15.6698H45.84C45.889 15.6563 45.9381 15.6448 45.9882 15.6355C46.0012 15.6334 46.0143 15.6313 46.0274 15.6292C46.0666 15.623 46.1058 15.6167 46.1461 15.6126C46.2006 15.6074 46.2562 15.6042 46.3128 15.6042C46.3695 15.6042 46.4196 15.6074 46.4719 15.6115C46.4991 15.6136 46.5263 15.6178 46.5525 15.6219C46.5743 15.625 46.5972 15.6282 46.6189 15.6313C46.6549 15.6375 46.6908 15.6448 46.7257 15.6532C46.7355 15.6552 46.7453 15.6584 46.7551 15.6604C46.7965 15.6708 46.8368 15.6823 46.876 15.6958C47.0024 15.7375 47.1212 15.7926 47.2323 15.8603C47.2323 15.8603 47.2323 15.8603 47.2334 15.8603C47.2671 15.8811 47.2998 15.9019 47.3314 15.9248C47.338 15.93 47.3445 15.9342 47.351 15.9394C47.3815 15.9613 47.411 15.9842 47.4393 16.0081C47.4447 16.0123 47.4491 16.0175 47.4545 16.0216C47.5384 16.0924 47.6147 16.1715 47.6822 16.2569C47.6942 16.2714 47.7062 16.2871 47.7182 16.3027C47.7334 16.3235 47.7487 16.3453 47.7639 16.3672C47.777 16.387 47.7901 16.4068 47.8021 16.4265C47.814 16.4463 47.8271 16.4671 47.838 16.4879C47.8533 16.515 47.8674 16.5441 47.8805 16.5723C47.887 16.5868 47.8957 16.6014 47.9023 16.616C47.9208 16.6586 47.9382 16.7034 47.9524 16.7482C47.9578 16.7638 47.9622 16.7804 47.9666 16.7971C47.9764 16.8294 47.9851 16.8616 47.9927 16.8939C47.9971 16.9116 48.0003 16.9293 48.0036 16.947C48.0101 16.9813 48.0156 17.0157 48.0199 17.05C48.0221 17.0656 48.0243 17.0823 48.0265 17.0979C48.0319 17.1489 48.0341 17.1999 48.0341 17.2509C48.0341 17.303 48.0308 17.354 48.0265 17.4039L48.0297 17.405Z" fill="white"/>
<path d="M62.5234 6.35938H63.7109V13.8329C63.7109 15.2517 64.1064 16.3488 64.8984 17.1253C65.6893 17.9018 66.7733 18.2911 68.1481 18.2911C69.523 18.2911 70.5906 17.9028 71.3881 17.1253C72.1855 16.3488 72.5853 15.2506 72.5853 13.8329V6.35938H73.7532V14.0172C73.7532 14.8676 73.6236 15.6295 73.3643 16.3019C73.105 16.9743 72.7313 17.5447 72.2454 18.0131C71.7585 18.4815 71.1713 18.8427 70.4838 19.0957C69.7964 19.3486 69.0175 19.4745 68.1481 19.4745C67.2788 19.4745 66.5162 19.3476 65.8222 19.0957C65.1282 18.8427 64.5378 18.4826 64.0508 18.0131C63.5638 17.5447 63.188 16.9743 62.9222 16.3019C62.6563 15.6295 62.5234 14.8686 62.5234 14.0172V6.35938Z" fill="white"/>
<path d="M88.3659 19.4723L83.7336 14.6197H80.3281V19.4723H79.1406V6.45703H84.298C86.0748 6.45703 87.4377 6.80781 88.3844 7.50729C89.3311 8.2078 89.805 9.21538 89.805 10.529C89.805 11.7312 89.4095 12.6763 88.6175 13.3644C87.8255 14.0524 86.6914 14.4583 85.212 14.5822L89.8627 19.4723H88.3648H88.3659ZM80.3281 7.46149V13.5975H84.2783C85.6924 13.5975 86.772 13.3498 87.5183 12.8533C88.2645 12.3578 88.6371 11.5824 88.6371 10.529C88.6371 9.4756 88.2645 8.74698 87.5183 8.23278C86.772 7.71858 85.699 7.46149 84.298 7.46149H80.3281Z" fill="white"/>
<path d="M93.2109 19.4723L99.5361 6.45703H100.684L107.01 19.4723H105.764L104.208 16.2559H96.014L94.4572 19.4723H93.212H93.2109ZM103.72 15.2515L100.099 7.7394L96.4792 15.2515H103.718H103.72Z" fill="white"/>
<path d="M68.1517 9.15206C67.9806 9.15206 67.8412 9.01882 67.8412 8.8554C67.8412 7.64173 66.8073 6.65393 65.537 6.65393C65.366 6.65393 65.2266 6.5207 65.2266 6.35728C65.2266 6.19386 65.366 6.06063 65.537 6.06063C66.8073 6.06063 67.8412 5.07283 67.8412 3.85915C67.8412 3.69573 67.9806 3.5625 68.1517 3.5625C68.3227 3.5625 68.4621 3.69573 68.4621 3.85915C68.4621 5.07283 69.496 6.06063 70.7663 6.06063C70.9373 6.06063 71.0768 6.19386 71.0768 6.35728C71.0768 6.5207 70.9373 6.65393 70.7663 6.65393C69.496 6.65393 68.4621 7.64173 68.4621 8.8554C68.4621 9.01882 68.3227 9.15206 68.1517 9.15206ZM66.8476 6.35728C67.4098 6.62791 67.8684 7.06612 68.1517 7.60322C68.4349 7.06612 68.8936 6.62791 69.4557 6.35728C68.8936 6.08665 68.4349 5.64844 68.1517 5.11134C67.8684 5.64844 67.4098 6.08665 66.8476 6.35728Z" fill="white"/>
<path d="M22.3789 4.20347C19.9397 1.85107 16.69 0.536431 13.2256 0.501041C13.1951 0.5 13.1646 0.5 13.1341 0.5H13.0829C13.023 0.5 12.9619 0.5 12.8977 0.502082C9.44311 0.547881 6.20208 1.86668 3.77267 4.217C1.33999 6.57253 0 9.69102 0 13C0 16.309 1.35524 19.466 3.81734 21.8246C5.01461 22.9717 6.40798 23.8741 7.9615 24.506C9.56949 25.1596 11.2777 25.4948 13.0404 25.5H13.1363C16.6202 25.4865 19.8929 24.1812 22.3528 21.8226C24.8127 19.4629 26.1679 16.3298 26.1679 13C26.1679 9.67021 24.8225 6.559 22.38 4.20347H22.3789ZM25.2713 12.5847C23.4357 12.516 21.649 12.0559 20.0377 11.2388C19.8373 11.1368 19.639 11.0296 19.444 10.9172C19.4157 10.6872 19.3819 10.4582 19.3449 10.2312C19.0366 8.38055 18.4167 6.6381 17.4994 5.0393C17.4035 4.87276 17.3044 4.7083 17.2031 4.54592C17.1355 4.43767 17.0658 4.33046 16.995 4.22429C16.7477 3.85269 16.484 3.49359 16.2062 3.14801C16.1267 3.04913 16.0461 2.95233 15.9644 2.85553C15.8413 2.71084 15.716 2.57032 15.5885 2.43084C15.5036 2.3382 15.4175 2.24765 15.3293 2.15709C15.1985 2.02282 15.0645 1.89062 14.9294 1.76155C14.8118 1.65018 14.6919 1.54089 14.571 1.43472C20.4474 2.12378 25.0589 6.84836 25.2724 12.5847H25.2713ZM11.8126 2.40794C11.8867 2.33716 11.9619 2.26742 12.0381 2.19873C12.0948 2.14668 12.1525 2.09568 12.2102 2.04467C12.3497 1.92289 12.4924 1.80319 12.6373 1.68765C12.6384 1.68765 12.6395 1.68557 12.6406 1.68453C12.6406 1.68661 12.6406 1.68765 12.6406 1.68973C12.6242 1.94579 12.5981 2.20081 12.5643 2.4527C12.1765 5.33908 10.6861 7.95066 8.36458 9.8253C8.15215 9.99704 7.93317 10.1625 7.70657 10.3208C7.75124 10.0564 7.80244 9.79511 7.86127 9.53593C7.92991 9.22887 8.00834 8.92597 8.09441 8.6262C8.12927 8.50545 8.16631 8.38471 8.20444 8.26605C8.22296 8.20672 8.24257 8.14635 8.26218 8.08702C8.3014 7.96836 8.3428 7.8497 8.38419 7.73312C8.46917 7.49788 8.5585 7.2668 8.65437 7.03781C8.70231 6.92331 8.75133 6.80985 8.80144 6.69744C8.8265 6.64123 8.85265 6.58502 8.87879 6.52881C8.95614 6.36123 9.03785 6.19573 9.12173 6.03127C9.20562 5.86785 9.29277 5.70547 9.38211 5.54622C9.44202 5.44005 9.50303 5.33387 9.56622 5.22979C9.722 4.96852 9.88651 4.71247 10.0586 4.46369C10.1621 4.31381 10.2678 4.16704 10.3767 4.02236C10.4497 3.92556 10.5227 3.83084 10.5979 3.73611C10.6731 3.64139 10.7493 3.54876 10.8267 3.45612C10.904 3.36452 10.9825 3.27292 11.062 3.1834C11.1818 3.04913 11.3038 2.91694 11.4291 2.78683C11.5119 2.70043 11.5969 2.61508 11.683 2.53181C11.7255 2.49017 11.769 2.44854 11.8126 2.4069V2.40794ZM11.5969 1.43576C10.4432 2.45374 9.43658 3.69344 8.64783 5.07574C8.58138 5.19127 8.5171 5.30889 8.45392 5.42651C8.39073 5.54413 8.32972 5.66175 8.2698 5.78146C8.06064 6.19781 7.86999 6.62353 7.69895 7.05654C7.6009 7.30427 7.51048 7.55513 7.4255 7.80806C7.4048 7.87155 7.38301 7.93505 7.36341 7.99854C7.3024 8.18903 7.24466 8.38159 7.19128 8.57519C7.17276 8.63973 7.15533 8.70426 7.13898 8.7688C7.10412 8.89891 7.07144 9.02902 7.04094 9.16017C6.95487 9.52344 6.88079 9.89191 6.81978 10.2646C6.78274 10.4904 6.75006 10.7184 6.72174 10.9474C6.52673 11.0587 6.32954 11.1649 6.12909 11.2659C6.00381 11.3283 5.87852 11.3887 5.75106 11.447C5.62469 11.5053 5.49831 11.5605 5.36976 11.6146C5.2423 11.6687 5.11266 11.7197 4.98302 11.7697C4.78801 11.8436 4.59192 11.9133 4.39364 11.9768C4.06355 12.084 3.728 12.1777 3.38919 12.2568C3.11793 12.3203 2.84448 12.3755 2.56886 12.4213C2.4305 12.4442 2.29214 12.465 2.15379 12.4837C2.01543 12.5025 1.87599 12.5181 1.73654 12.5316C1.59709 12.5451 1.45656 12.5566 1.31602 12.566C1.17658 12.5753 1.03713 12.5816 0.897684 12.5868C1.10903 6.85773 5.72274 2.12586 11.5969 1.43576ZM0.896595 13.4486C1.10685 13.4559 1.31711 13.4674 1.52628 13.484C1.66682 13.4955 1.80626 13.509 1.94571 13.5256C2.01543 13.534 2.08515 13.5423 2.15488 13.5517C2.29432 13.5704 2.43268 13.5912 2.57104 13.6141C2.70939 13.637 2.84666 13.662 2.98393 13.6901C3.18983 13.7317 3.39355 13.7775 3.59618 13.8285C4.47753 14.0513 5.33054 14.3688 6.14107 14.7758C6.34262 14.8767 6.54089 14.9839 6.73699 15.0963C6.76749 15.3274 6.80235 15.5564 6.84157 15.7833C6.84593 15.8083 6.85029 15.8333 6.85465 15.8572C6.87861 15.9915 6.90476 16.1258 6.93199 16.259C6.95923 16.3922 6.98864 16.5244 7.01915 16.6566C7.08016 16.921 7.1477 17.1823 7.22178 17.4415C7.25882 17.5705 7.29804 17.6996 7.33835 17.8276C7.37866 17.9557 7.42006 18.0837 7.46363 18.2107C7.48542 18.2742 7.50721 18.3377 7.53009 18.4001C7.57475 18.5261 7.6216 18.652 7.67062 18.7769C7.74361 18.9643 7.81987 19.1496 7.8994 19.3338C8.13907 19.8865 8.41034 20.4236 8.71429 20.9461C8.77965 21.0585 8.84611 21.1699 8.91474 21.2802C9.05092 21.5009 9.19363 21.7174 9.34071 21.9298C9.41479 22.0359 9.48887 22.1411 9.56513 22.2452C9.60326 22.2972 9.64139 22.3482 9.68061 22.4002C9.79718 22.5543 9.91592 22.7052 10.0379 22.8541C10.5532 23.4817 11.1165 24.0605 11.7189 24.5799C5.79028 23.9439 1.12864 19.2224 0.897684 13.4486H0.896595ZM13.5796 1.7272C13.7877 1.89479 13.9893 2.06966 14.1865 2.25077C14.6331 2.66192 15.0515 3.1043 15.4382 3.57582C15.5145 3.66846 15.5885 3.76214 15.6626 3.85686C15.7727 3.99842 15.8805 4.1431 15.9851 4.28987C16.0548 4.38771 16.1234 4.48659 16.191 4.58652C16.2248 4.63648 16.2585 4.68644 16.2912 4.73745C16.3577 4.83841 16.422 4.94042 16.4862 5.04243C16.6769 5.35053 16.8566 5.668 17.0244 5.99276C17.1366 6.20926 17.2423 6.42889 17.3436 6.65268C17.3687 6.70889 17.3937 6.76405 17.4188 6.82026C17.7903 7.66754 18.0844 8.56062 18.2958 9.48805C18.3557 9.74931 18.408 10.0137 18.4537 10.2812C18.5038 10.5737 18.5474 10.8693 18.5812 11.168C18.591 11.2503 18.5997 11.3335 18.6073 11.4168C18.6139 11.4824 18.6204 11.5469 18.6259 11.6125C18.6389 11.7613 18.6498 11.9102 18.6574 12.0601C18.6574 12.0642 18.6574 12.0694 18.6574 12.0736C18.6651 12.2183 18.6716 12.364 18.676 12.5087C18.6803 12.6586 18.6825 12.8074 18.6825 12.9573C18.6825 13.2946 18.6716 13.6339 18.6498 13.9711C18.9472 13.7973 19.2512 13.6349 19.5617 13.484C19.5671 13.3081 19.5704 13.1332 19.5704 12.9584C19.5704 12.8251 19.5682 12.6919 19.5649 12.5597C19.5595 12.3557 19.5508 12.1517 19.5388 11.9487C19.7262 12.0455 19.9168 12.1381 20.1086 12.2256C20.3112 12.3182 20.5149 12.4057 20.7219 12.4879C20.9507 12.5795 21.1827 12.6638 21.4159 12.7419C21.7274 12.8459 22.0434 12.9396 22.3626 13.0208C21.9617 13.1228 21.5673 13.2436 21.1784 13.382C20.8134 13.5121 20.4539 13.6589 20.102 13.8192C19.9092 13.9077 19.7185 14.0003 19.5301 14.0981C19.2566 14.2397 18.9886 14.3896 18.7261 14.5499C18.6814 14.5769 18.6378 14.604 18.5943 14.6321C18.3873 14.7612 18.1846 14.8965 17.9864 15.036C16.4971 16.0862 15.2465 17.4352 14.339 18.9778C13.9708 19.6034 13.6603 20.2581 13.4119 20.9336C13.2986 21.2407 13.1984 21.5519 13.1101 21.8663C12.9837 21.4135 12.8301 20.9669 12.6515 20.5308C12.4216 19.9698 12.1481 19.4243 11.8344 18.8997C11.5631 18.447 11.2624 18.0108 10.9345 17.5955C10.8528 17.4914 10.7689 17.3884 10.684 17.2874C10.599 17.1864 10.5118 17.0855 10.4236 16.9866C10.3354 16.8877 10.2449 16.7899 10.1534 16.6941C10.0619 16.5983 9.96821 16.5026 9.87452 16.4099C9.63812 16.1768 9.39191 15.9509 9.13699 15.7354C9.03458 15.6491 8.93217 15.5647 8.8265 15.4815C8.61515 15.3139 8.39836 15.1526 8.17612 14.9975C8.23277 15.418 8.30685 15.8323 8.39727 16.2403C8.4659 16.2965 8.53453 16.3527 8.60099 16.4089C8.69795 16.4911 8.79273 16.5744 8.88642 16.6598C9.12064 16.8721 9.34507 17.0928 9.55968 17.3207C9.64575 17.4123 9.72963 17.5039 9.81243 17.5976C9.97802 17.785 10.136 17.9765 10.2885 18.1722C10.3648 18.27 10.4388 18.3689 10.5118 18.4699C11.0925 19.2713 11.5653 20.1394 11.9183 21.0565C11.9847 21.2282 12.0468 21.402 12.1035 21.5769C12.1612 21.7518 12.2146 21.9287 12.2636 22.1067C12.2963 22.2254 12.3268 22.3451 12.3562 22.4648C12.4336 22.7864 12.4957 23.1132 12.5447 23.4432C12.5828 23.7003 12.6122 23.9605 12.6319 24.2218C12.621 24.2135 12.6101 24.2041 12.5992 24.1958C12.4009 24.0365 12.2092 23.871 12.0207 23.6993C11.8529 23.5463 11.6884 23.3891 11.5283 23.2267C11.4433 23.1414 11.3605 23.0539 11.2777 22.9654C11.1546 22.8333 11.0337 22.6979 10.9149 22.5605C10.7973 22.4231 10.6818 22.2826 10.5685 22.14C10.4181 21.9495 10.2733 21.7549 10.1327 21.5561C10.0979 21.5061 10.063 21.4562 10.0281 21.4062C9.9595 21.3052 9.89196 21.2043 9.8255 21.1012C9.79282 21.0502 9.75905 20.9982 9.72745 20.9472C9.66209 20.8441 9.5989 20.739 9.53571 20.6339C9.31674 20.2643 9.11411 19.8834 8.92891 19.492C8.87552 19.3796 8.82432 19.2672 8.77421 19.1537C8.62278 18.8134 8.48442 18.4647 8.35914 18.1097C8.29595 17.9317 8.23712 17.7527 8.18047 17.5716C8.14234 17.4508 8.10639 17.3301 8.07262 17.2073C8.05519 17.1458 8.03885 17.0855 8.02142 17.0241C7.98873 16.9012 7.95605 16.7784 7.92664 16.6546C7.91683 16.6129 7.90703 16.5702 7.89722 16.5286C7.83621 16.2663 7.78065 16.0019 7.73272 15.7344C7.67498 15.4107 7.62596 15.0828 7.58783 14.7518C7.58238 14.7008 7.57693 14.6498 7.57149 14.5988C7.54861 14.3813 7.53009 14.1616 7.51701 13.942C7.49632 13.6141 7.48542 13.2862 7.48542 12.9584C7.48542 12.6732 7.49305 12.388 7.5083 12.1048C7.43422 12.1475 7.35905 12.1902 7.28279 12.2318V12.2308C7.26318 12.2433 7.24357 12.2537 7.22287 12.2641L7.19999 12.2766C7.00281 12.3838 6.80344 12.4868 6.60081 12.5836C6.59754 12.7086 6.59645 12.8335 6.59645 12.9584C6.59645 13.1249 6.59972 13.2925 6.60408 13.4601C6.60844 13.6079 6.61497 13.7567 6.62369 13.9045C6.62696 13.9607 6.63022 14.0159 6.63458 14.0721C6.44611 13.9753 6.25546 13.8837 6.06372 13.7963C5.87417 13.7109 5.68243 13.6297 5.4896 13.5527C5.39482 13.5152 5.30004 13.4778 5.20417 13.4424C5.08324 13.3976 4.96123 13.3549 4.83921 13.3133C4.7379 13.279 4.63658 13.2456 4.53418 13.2134C4.30867 13.1426 4.08098 13.0781 3.8522 13.0198C4.00472 12.9813 4.15615 12.9396 4.30649 12.8949C4.45683 12.8512 4.60717 12.8043 4.75642 12.7544C4.90567 12.7054 5.05383 12.6534 5.19981 12.5982C5.4896 12.491 5.77721 12.3776 6.05719 12.2464C6.41452 12.0788 7.09323 11.7249 7.32092 11.5906C7.37975 11.5563 7.43749 11.5219 7.49523 11.4866C7.51592 11.4741 7.53553 11.4616 7.55623 11.4491C7.59327 11.4262 7.63031 11.4033 7.66735 11.3804C7.83295 11.2753 7.99636 11.167 8.15759 11.0556C8.16304 11.0515 8.16849 11.0483 8.17394 11.0442C8.28397 10.9672 8.394 10.888 8.50185 10.8079C9.04112 10.4061 9.54661 9.96478 10.014 9.48909C10.1077 9.39437 10.1992 9.29757 10.2896 9.19973C10.38 9.10188 10.4683 9.003 10.5554 8.90203C10.6426 8.80107 10.7275 8.7001 10.8114 8.59601C10.8953 8.49296 10.977 8.38888 11.0576 8.2827C11.0979 8.22962 11.1372 8.17653 11.1775 8.12345C11.2951 7.96315 11.4095 7.79973 11.5196 7.63423C11.6296 7.46873 11.7353 7.30011 11.8377 7.13044C12.0109 6.84004 12.1721 6.54234 12.3203 6.24049C12.3791 6.11974 12.4368 5.99796 12.4913 5.87514C12.5741 5.6909 12.6515 5.50458 12.7255 5.31722C12.8715 4.9425 12.999 4.5605 13.1079 4.17329C13.231 4.61254 13.3781 5.04451 13.5502 5.46815C13.7714 6.01253 14.0318 6.54234 14.3324 7.05342C15.2443 8.60642 16.5037 9.9627 18.0038 11.0171C17.9504 10.5976 17.8796 10.1834 17.7914 9.77638C15.521 7.91527 14.0568 5.34012 13.6603 2.50683C13.6243 2.24973 13.5971 1.99055 13.5786 1.72929M14.205 23.641C14.0056 23.8252 13.8008 24.0032 13.5895 24.175C13.6112 23.9095 13.6417 23.6462 13.6821 23.386C14.1058 20.6255 15.5461 18.117 17.7565 16.2913C17.9733 16.1123 18.1966 15.9405 18.4276 15.775C18.3775 16.0456 18.3208 16.3142 18.2576 16.5796C17.5942 19.3463 16.1779 21.8163 14.205 23.642V23.641ZM14.4501 24.5799C16.9699 22.4138 18.7021 19.3005 19.3187 15.8218C19.359 15.5928 19.395 15.3618 19.4266 15.1297C19.6227 15.0162 19.822 14.9079 20.0236 14.8049C21.6381 13.9826 23.4291 13.5204 25.2702 13.4517C25.0393 19.2235 20.3776 23.9449 14.4501 24.5809V24.5799Z" fill="white"/>
<path d="M16.3683 12.9987C16.3683 11.2677 14.8943 9.85938 13.0826 9.85938C11.2709 9.85938 9.79688 11.2677 9.79688 12.9987C9.79688 14.7297 11.2709 16.138 13.0826 16.138C14.8943 16.138 16.3683 14.7297 16.3683 12.9987ZM13.0815 15.2907C11.7589 15.2907 10.6826 14.2623 10.6826 12.9987C10.6826 11.7351 11.7589 10.7067 13.0815 10.7067C14.404 10.7067 15.4804 11.7351 15.4804 12.9987C15.4804 14.2623 14.404 15.2907 13.0815 15.2907Z" fill="white"/>
</svg>
