<svg width="24" height="24" viewBox="0 0 24 24" fill="none" xmlns="http://www.w3.org/2000/svg">
<path d="M12 20.25C16.9706 20.25 21 16.5563 21 12C21 7.44365 16.9706 3.75 12 3.75C7.02944 3.75 3 7.44365 3 12C3 14.0355 3.80419 15.8988 5.13721 17.3376C5.64386 17.8844 6.02299 18.5975 5.80621 19.3107C5.62602 19.9036 5.32668 20.4446 4.93579 20.906C5.0918 20.9339 5.25 20.9558 5.40967 20.9713C5.60376 20.9903 5.80078 21 6 21C7.28201 21 8.47016 20.5979 9.44517 19.9129C10.2551 20.1323 11.1125 20.25 12 20.25Z" stroke="#D1CBFF" stroke-width="1.5" stroke-linecap="round" stroke-linejoin="round"/>
</svg>
