<svg width="24" height="24" viewBox="0 0 24 24" fill="none" xmlns="http://www.w3.org/2000/svg">
<path d="M3.98913 8.26941L3.98914 8.26939C4.95258 6.04022 6.69851 4.3305 8.90595 3.45779C11.1136 2.585 13.5184 2.65422 15.6758 3.65246C16.6904 4.12193 17.5916 4.77215 18.351 5.56506C20.8308 5.60498 22.5477 6.35192 23.0709 7.76923C23.5888 9.172 22.8055 10.9045 21.0059 12.6338M3.98913 8.26941L20.902 12.5257M3.98913 8.26941C3.54522 9.29687 3.29404 10.3789 3.23227 11.4698M3.98913 8.26941L6.03216 18.6884M21.0059 12.6338L20.902 12.5257M21.0059 12.6338C21.0059 12.6338 21.006 12.6337 21.006 12.6337L20.902 12.5257M21.0059 12.6338C20.9668 12.6715 20.9252 12.7098 20.8852 12.7466C20.882 12.7495 20.8789 12.7523 20.8758 12.7552M20.902 12.5257C20.8641 12.5622 20.8247 12.5984 20.7852 12.6347C20.767 12.6514 20.7488 12.6681 20.7308 12.6849M20.8758 12.7552C20.8774 12.7355 20.8789 12.7157 20.8804 12.696L20.7308 12.6849M20.8758 12.7552C20.5946 16.2444 18.3965 19.2897 15.2214 20.5449C14.2046 20.9469 13.1361 21.15 12.064 21.15C11.4426 21.15 10.8201 21.0817 10.2058 20.9446C8.63784 20.5948 7.20009 19.814 6.03216 18.6884M20.8758 12.7552C20.8612 12.7686 20.8468 12.7819 20.8329 12.7948L20.7308 12.6849M20.7308 12.6849L6.03216 18.6884M6.03216 18.6884C6.0542 18.6874 6.07378 18.6866 6.09271 18.6863L6.09093 18.5364L5.98607 18.6436C6.00139 18.6586 6.01675 18.6735 6.03216 18.6884ZM6.03216 18.6884C6.03074 18.6884 6.02932 18.6885 6.02788 18.6885L6.02273 18.6888C5.99786 18.6898 5.96981 18.691 5.94191 18.691C5.8563 18.691 5.77229 18.6901 5.68848 18.6887L5.68823 18.6887C3.23142 18.6415 1.52679 17.8889 1.00775 16.4834L1.00775 16.4834C0.737934 15.7526 0.819943 14.935 1.20954 14.0812C1.59255 13.2417 2.27585 12.3593 3.23227 11.4698M3.23227 11.4698C3.23111 11.4902 3.23003 11.5106 3.229 11.531L3.37881 11.5385L3.27713 11.4282C3.26211 11.4421 3.24716 11.4559 3.23227 11.4698ZM9.23554 4.32936L9.23553 4.32937C7.25701 5.11134 5.69037 6.64389 4.82474 8.64736L4.68704 8.58786L4.82474 8.64736C4.4009 9.62829 4.17169 10.6641 4.1353 11.7065L4.1351 11.7122V11.7148L4.13502 11.7148C4.11803 12.2144 4.14693 12.7154 4.21959 13.2134C4.24323 13.2767 4.2495 13.3403 4.24696 13.3986C4.33447 13.9171 4.47081 14.4308 4.65629 14.9333C4.77623 15.2583 4.91995 15.5748 5.07913 15.8818C5.44152 15.9006 5.85091 15.8936 6.30317 15.8573M9.23554 4.32936L6.31519 16.0068M9.23554 4.32936C11.2136 3.54746 13.3666 3.6092 15.2998 4.50389C16.2627 4.94954 17.113 5.57492 17.8177 6.34328C17.8196 6.34548 17.8268 6.3538 17.835 6.36209C18.5379 7.13344 19.095 8.04769 19.4723 9.06936L9.23554 4.32936ZM6.30317 15.8573L6.31519 16.0068M6.30317 15.8573C6.30316 15.8573 6.30315 15.8573 6.30314 15.8573L6.31519 16.0068M6.30317 15.8573C8.1671 15.7072 10.5126 15.1055 12.9062 14.1593C15.2997 13.2131 17.4359 12.0435 18.9224 10.8688C19.2497 10.6101 19.5355 10.3577 19.7788 10.1155M6.31519 16.0068C8.19821 15.8552 10.5586 15.2486 12.9613 14.2988C15.364 13.3489 17.5142 12.1728 19.0154 10.9865C19.373 10.7039 19.6827 10.4277 19.9431 10.1629M19.7788 10.1155C19.7848 10.142 19.7908 10.1686 19.7966 10.1951L19.9431 10.1629M19.7788 10.1155C19.6978 9.76061 19.5977 9.40933 19.4723 9.06939L19.9431 10.1629M19.7788 10.1155C19.7982 10.0962 19.8173 10.0769 19.8362 10.0577L19.9431 10.1629M20.495 9.24628C20.4439 9.07594 20.3883 8.90647 20.3265 8.73893L20.3264 8.73885C20.2187 8.44711 20.097 8.16396 19.9632 7.88917C20.1335 7.93638 20.2765 7.99331 20.3915 8.05797C20.5696 8.15813 20.6701 8.27063 20.7122 8.3849L20.7123 8.38494C20.7552 8.50112 20.7537 8.65285 20.6896 8.84502C20.6489 8.96725 20.5841 9.1015 20.495 9.24628ZM3.8018 15.2638L3.80181 15.2638C3.85602 15.4106 3.91453 15.5556 3.97629 15.6988C3.63157 15.5803 3.44054 15.4194 3.37636 15.2454L3.37635 15.2453C3.33607 15.1362 3.33535 14.9926 3.39228 14.81C3.42533 14.704 3.47689 14.5881 3.54761 14.4635C3.62003 14.7322 3.70422 14.9993 3.8018 15.2638ZM19.8308 13.6482C19.2896 16.3704 17.4396 18.6667 14.8927 19.6733L14.9479 19.8128L14.8927 19.6733C12.3655 20.6723 9.5227 20.2472 7.3724 18.6177C9.37064 18.4308 11.6071 17.8724 13.8391 16.9903L13.8391 16.9903C16.1278 16.0855 18.2023 14.9245 19.8308 13.6482ZM5.70599 17.7541H5.70596C4.64465 17.7337 3.76584 17.5703 3.11013 17.2904C2.4542 17.0104 2.03521 16.6205 1.86251 16.1529L1.7218 16.2048L1.86251 16.1528C1.69613 15.7023 1.74335 15.1541 2.01593 14.5313C2.257 13.9804 2.67054 13.3809 3.24891 12.7582C3.26223 12.9211 3.27984 13.0837 3.30165 13.246C2.57005 14.0909 2.26622 14.8827 2.52217 15.5756C2.78383 16.2841 3.55815 16.6678 4.67213 16.7846C4.70829 16.7955 4.75041 16.8042 4.79699 16.8042C4.81091 16.8042 4.82319 16.8026 4.83095 16.8014C5.02994 16.8174 5.23822 16.8278 5.46277 16.8278C5.74812 16.8278 6.05225 16.8148 6.37475 16.7888L6.37477 16.7888C8.33394 16.631 10.7699 16.0053 13.2355 15.0308L13.1803 14.8913L13.2355 15.0308C15.7008 14.0563 17.9191 12.8419 19.4805 11.6084L19.3876 11.4907L19.4805 11.6084C19.8956 11.2805 20.2533 10.9602 20.5517 10.6491C20.5983 10.6143 20.636 10.5719 20.6654 10.5254C21.4819 9.63449 21.8365 8.78573 21.5668 8.05447L21.5667 8.05442C21.3012 7.3355 20.5227 6.9474 19.3639 6.83613C19.2988 6.73732 19.2319 6.63992 19.1633 6.54398C19.9499 6.61936 20.6063 6.78439 21.1121 7.02533C21.686 7.29869 22.0561 7.66433 22.2168 8.09943L22.3575 8.04748L22.2168 8.09944C22.3898 8.56793 22.3287 9.14978 22.0192 9.81314C21.7101 10.4757 21.1595 11.2047 20.3813 11.9527C18.7329 13.5368 16.2936 15.018 13.5098 16.1184C10.726 17.2189 7.95404 17.798 5.70599 17.7541ZM4.84311 16.7993C4.84322 16.7992 4.84321 16.7992 4.84309 16.7993L4.84311 16.7993Z" fill="#D1CBFF" stroke="#D1CBFF" stroke-width="0.3"/>
</svg>
