<svg width="26" height="24" viewBox="0 0 26 24" fill="none" xmlns="http://www.w3.org/2000/svg">
<path d="M23.3984 13.2353L23.3986 13.2355L23.4047 13.228C24.6018 11.7405 25.2219 9.83543 25.1434 7.8913C25.0649 5.94727 24.2935 4.10405 22.9806 2.72815C21.6706 1.34912 19.9133 0.537407 18.0576 0.45674C16.2022 0.376085 14.387 1.0323 12.9729 2.29285C12.9726 2.29307 12.9724 2.29328 12.9721 2.2935L12.752 2.4847C11.3945 1.22321 9.63002 0.548223 7.81435 0.599788C5.97886 0.651916 4.23397 1.44246 2.93913 2.80591C1.6445 4.16914 0.898235 6.00117 0.852258 7.92371C0.806281 9.84624 1.46403 11.7152 2.69165 13.1448L2.69201 13.1452L2.74534 13.2068L2.74531 13.2069L2.74758 13.2094L5.77687 16.5557L5.77684 16.5558L5.77941 16.5585L6.37406 17.1834L6.48249 17.2974L6.59117 17.1837L7.18573 16.5616C7.51281 16.2548 7.93762 16.0922 8.37304 16.1048C8.80974 16.1175 9.22676 16.3055 9.5378 16.6328C9.84905 16.9602 10.0302 17.402 10.042 17.8677C10.0537 18.332 9.89605 18.7822 9.60319 19.1264L9.01136 19.7485L8.91385 19.8509L9.01045 19.9543L9.6051 20.5905L9.60602 20.5914L11.9233 23.0269L11.929 23.0329L11.9353 23.0382L12.2447 23.2989L12.2521 23.3051L12.2602 23.3103C12.5036 23.4669 12.784 23.5501 13.0706 23.5501C13.3572 23.5501 13.6377 23.4669 13.8811 23.3103L13.8898 23.3048L13.8976 23.2981L14.2016 23.0374L14.2073 23.0325L14.2126 23.027L16.2942 20.8419C16.7262 21.0597 17.2026 21.1662 17.6834 21.1513C18.2028 21.1352 18.7089 20.9779 19.1523 20.6956C19.5957 20.4132 19.9611 20.0156 20.2136 19.5421C20.466 19.0688 20.5973 18.5354 20.5952 17.9938C20.5974 17.5172 20.4951 17.0468 20.2966 16.6187L23.3984 13.2353ZM17.757 1.6362L17.7576 1.6362C18.9663 1.63342 20.1503 1.99952 21.166 2.69092C22.1817 3.38239 22.9857 4.36972 23.4791 5.53382C23.9726 6.69797 24.1339 7.9881 23.9433 9.24729C23.761 10.4509 23.2647 11.5758 22.512 12.4978L19.3612 9.23222L19.2324 9.09874L19.1288 9.2526C19.0662 9.34551 18.9965 9.43273 18.9204 9.51339C18.583 9.86834 18.1268 10.0664 17.6528 10.0666C17.1787 10.0669 16.7223 9.86925 16.3845 9.51459C16.0465 9.15967 15.8553 8.67663 15.855 8.1714C15.8548 7.66649 16.0454 7.18356 16.3826 6.82836C16.4605 6.74865 16.5438 6.67516 16.6318 6.60846L16.7646 6.50789L16.6507 6.38635L13.6846 3.22017C14.8171 2.19602 16.2623 1.63339 17.757 1.6362ZM18.9068 16.3969L18.8092 16.5003L18.9072 16.6033C19.0801 16.785 19.2177 17.0012 19.3116 17.2396C19.4056 17.478 19.4541 17.7338 19.4541 17.9923C19.4541 18.2508 19.4056 18.5066 19.3116 18.745C19.2177 18.9834 19.0801 19.1996 18.9072 19.3813C18.7343 19.563 18.5294 19.7068 18.3045 19.8047C18.0796 19.9026 17.8389 19.9529 17.5959 19.9529C17.353 19.9529 17.1122 19.9026 16.8873 19.8047C16.6624 19.7068 16.4575 19.563 16.2846 19.3813L16.1759 19.2671L16.0673 19.3813L13.4006 22.1839L13.4005 22.1838L13.3959 22.1892L13.3692 22.22L13.3692 22.22L13.3674 22.2222L13.3542 22.238C13.2758 22.3115 13.1761 22.3517 13.0737 22.3531C13.0137 22.353 12.9543 22.3391 12.8994 22.312C12.8443 22.2848 12.7948 22.2448 12.755 22.1944L12.7556 22.194L12.7458 22.1838L10.5168 19.8492C10.9915 19.2991 11.2551 18.583 11.2551 17.8396C11.2551 17.0474 10.9557 16.2862 10.4207 15.7239C9.8854 15.1613 9.15776 14.8438 8.39737 14.8438C7.68849 14.8438 7.00806 15.1197 6.48542 15.613L4.18049 13.2008L7.35406 9.85176L7.35427 9.85153L7.38606 9.81813L7.47248 9.7273L7.39843 9.62614L6.94511 9.00675L6.94497 9.00657C6.7153 8.69375 6.60108 8.30264 6.62501 7.90631C6.64894 7.51011 6.80915 7.13788 7.07396 6.85865C7.3377 6.58341 7.68582 6.41885 8.05372 6.3932C8.42151 6.36755 8.78667 6.48227 9.08203 6.7179C9.08217 6.71801 9.08231 6.71812 9.08245 6.71823L9.67105 7.1941L9.77865 7.28109L9.87402 7.18085L10.1403 6.90099L10.1407 6.90058L12.8708 4.05277L15.1761 6.50934C14.8262 7.08176 14.6659 7.76004 14.7214 8.43874C14.7802 9.15774 15.0774 9.83342 15.5629 10.3474L15.5632 10.3478C16.0508 10.8605 16.6957 11.1779 17.3856 11.2423C18.0324 11.3027 18.6781 11.1371 19.2232 10.7743L21.7422 13.3953L18.9068 16.3969ZM2.00233 7.95354C2.04309 6.33061 2.6746 4.78729 3.76472 3.64118C4.85533 2.49624 6.32052 1.83566 7.85824 1.793C9.34722 1.75169 10.7972 2.29269 11.9283 3.30997L9.671 5.71338C9.177 5.3591 8.58185 5.18767 7.98068 5.23044C7.33394 5.27647 6.72641 5.56709 6.27 6.04641C5.81376 6.52556 5.53918 7.1609 5.49531 7.83446C5.4542 8.46551 5.61806 9.09191 5.95914 9.61205L3.44013 12.231C2.47696 11.0432 1.96298 9.52003 2.00233 7.95354Z" fill="#D1CBFF" stroke="#D1CBFF" stroke-width="0.3"/>
</svg>
