<svg width="26" height="20" viewBox="0 0 26 20" fill="none" xmlns="http://www.w3.org/2000/svg">
<path d="M21.0998 8.2C23.0888 8.2 24.6998 6.589 24.6998 4.6C24.6998 2.611 23.0888 1 21.0998 1H19.2998" stroke="#D1CBFF" stroke-width="1.5" stroke-miterlimit="10" stroke-linecap="round" stroke-linejoin="round"/>
<path d="M3.9998 4.6V1L10.1612 7.1614C10.838 7.8382 11.7578 8.218 12.7154 8.2162L21.0998 8.2V17.2C21.0998 18.19 20.2898 19 19.2998 19C18.3098 19 17.4998 18.19 17.4998 17.2V16.3C17.4998 14.8096 16.2902 13.6 14.7998 13.6H12.9998C11.5094 13.6 10.2998 14.8096 10.2998 16.3V17.2C10.2998 18.19 9.4898 19 8.4998 19C7.5098 19 6.6998 18.19 6.6998 17.2V11.8C6.6998 10.8064 5.8934 10 4.8998 10H2.1998C1.703 10 1.2998 9.5968 1.2998 9.1C1.2998 8.9218 1.352 8.7562 1.4402 8.6176L3.9998 4.6Z" stroke="#D1CBFF" stroke-width="1.5" stroke-miterlimit="10" stroke-linecap="round" stroke-linejoin="round"/>
</svg>
