<svg width="24" height="24" viewBox="0 0 24 24" fill="none" xmlns="http://www.w3.org/2000/svg">
<path fill-rule="evenodd" clip-rule="evenodd" d="M11.9908 3C12.1372 3 12.3673 3.00695 12.5021 3.01622C12.6358 3.02664 12.8217 3.0417 12.9147 3.05213C13.0076 3.06139 13.1692 3.08224 13.2749 3.09846C13.3807 3.11468 13.5585 3.14596 13.67 3.16796C13.7816 3.18997 13.9675 3.23168 14.0825 3.26063C14.1976 3.29075 14.3835 3.34172 14.4951 3.37647C14.6066 3.41006 14.7926 3.47262 14.9076 3.51432C15.0227 3.55602 15.19 3.62089 15.2795 3.65796C15.369 3.69503 15.5235 3.76337 15.6223 3.8097C15.7211 3.85488 15.8628 3.92438 15.936 3.96261C16.0093 4.00199 16.1475 4.07729 16.244 4.13173C16.3393 4.18502 16.4962 4.27885 16.5926 4.34024C16.6879 4.40048 16.8273 4.49199 16.9006 4.54296C16.9738 4.59392 17.1051 4.68891 17.1911 4.75494C17.2771 4.81981 17.4188 4.93217 17.5048 5.00283C17.5908 5.07465 17.7117 5.1789 17.7721 5.23335C17.8325 5.28779 17.9499 5.399 18.1846 5.6272L18.4519 5.63994C18.5983 5.64689 18.8075 5.65963 18.9167 5.67006C19.0248 5.67932 19.198 5.69786 19.3002 5.7106C19.4025 5.72334 19.5745 5.74883 19.6837 5.76736C19.7918 5.78589 19.9417 5.81485 20.0149 5.83107C20.0881 5.84729 20.2194 5.87856 20.3054 5.90173C20.3914 5.92374 20.5355 5.9666 20.625 5.99556C20.7145 6.02336 20.869 6.07896 20.9678 6.11835C21.0666 6.15657 21.2316 6.23071 21.3338 6.28284C21.4361 6.33381 21.5744 6.41026 21.6395 6.4508C21.7057 6.4925 21.8231 6.57359 21.9009 6.63151C21.9788 6.68943 22.102 6.79368 22.1752 6.86318C22.2484 6.93269 22.3495 7.03926 22.3995 7.09949C22.4506 7.15973 22.5284 7.26398 22.5738 7.33117C22.6179 7.39835 22.6911 7.52577 22.7353 7.61497C22.7795 7.70416 22.8387 7.84896 22.8678 7.93584C22.8968 8.02388 22.9328 8.15941 22.948 8.23702C22.9642 8.31579 22.9828 8.44205 22.9909 8.5185C22.9991 8.60538 23.0026 8.73512 22.9979 8.86601C22.9933 8.98069 22.9828 9.12665 22.9735 9.19036C22.9642 9.25407 22.9433 9.36643 22.927 9.43941C22.9108 9.51239 22.884 9.61896 22.8678 9.67688C22.8515 9.73364 22.8201 9.83094 22.7992 9.89118C22.7783 9.95141 22.733 10.0684 22.6981 10.1518C22.6644 10.2341 22.5935 10.3858 22.5412 10.4877C22.4901 10.5897 22.4053 10.7437 22.3541 10.8295C22.303 10.9152 22.2112 11.0588 22.1508 11.148C22.0915 11.2372 21.9892 11.3808 21.9242 11.4666C21.8591 11.5523 21.751 11.6901 21.6825 11.7735C21.6151 11.8558 21.4826 12.0098 21.3885 12.1141C21.2943 12.2184 21.1049 12.4164 20.7156 12.8045L20.7075 12.8856C20.7028 12.9296 20.6889 13.0501 20.6761 13.152C20.6633 13.2539 20.6378 13.4312 20.618 13.5459C20.5983 13.6605 20.5646 13.8378 20.5425 13.9397C20.5204 14.0416 20.4797 14.2131 20.4507 14.322C20.4228 14.4297 20.3728 14.6046 20.3403 14.71C20.3077 14.8154 20.2554 14.9764 20.2229 15.0691C20.1892 15.1618 20.1253 15.3309 20.0788 15.4456C20.0323 15.5603 19.9591 15.7317 19.9161 15.8279C19.872 15.9228 19.7918 16.0873 19.7383 16.1927C19.6849 16.2982 19.5966 16.4603 19.5431 16.5542C19.4896 16.6491 19.406 16.7893 19.3572 16.8669C19.3084 16.9457 19.2177 17.0824 19.1573 17.1716C19.0969 17.2608 19.0016 17.394 18.9481 17.467C18.8935 17.5399 18.7878 17.6755 18.7134 17.7681C18.6378 17.8608 18.5286 17.9905 18.4693 18.0577C18.4101 18.1249 18.295 18.25 18.2137 18.3357C18.1312 18.4215 17.9801 18.5709 17.8755 18.667C17.7709 18.7643 17.6222 18.8964 17.5455 18.9613C17.4688 19.0261 17.3328 19.135 17.2434 19.2045C17.1539 19.2729 16.997 19.3875 16.8947 19.4594C16.7925 19.5312 16.6228 19.6424 16.5171 19.7073C16.4113 19.7733 16.2544 19.8659 16.1685 19.9134C16.0825 19.9621 15.9221 20.0455 15.814 20.0988C15.7048 20.1532 15.5479 20.2274 15.4654 20.2644C15.3817 20.3015 15.2283 20.3652 15.1226 20.4058C15.0168 20.4475 14.8472 20.51 14.7449 20.5436C14.6427 20.5784 14.4567 20.6363 14.3324 20.671C14.208 20.7069 14.0035 20.7591 13.8792 20.7869C13.7548 20.8147 13.5457 20.8564 13.4144 20.8772C13.283 20.8992 13.0797 20.9282 12.9612 20.9409C12.8426 20.9548 12.6358 20.9734 12.5021 20.9826C12.3673 20.9919 12.1535 21 12.0257 21C11.8979 21 11.6806 20.9919 11.5434 20.9826C11.4063 20.9722 11.1995 20.9537 11.0844 20.9409C10.9694 20.9282 10.8102 20.9073 10.73 20.8946C10.6498 20.883 10.5034 20.8564 10.4046 20.8367C10.3058 20.817 10.1489 20.7834 10.056 20.7614C9.96302 20.7394 9.80614 20.6977 9.70736 20.6699C9.60859 20.6421 9.42731 20.5853 9.30645 20.5436C9.18443 20.5031 9.01012 20.4405 8.91716 20.4034C8.82419 20.3664 8.6801 20.3073 8.59759 20.2702C8.51392 20.2332 8.34194 20.1521 8.21411 20.0884C8.08628 20.0235 7.91081 19.932 7.82482 19.8822C7.73882 19.8335 7.60751 19.7559 7.5343 19.7107C7.46109 19.6644 7.33559 19.5845 7.2554 19.53C7.17522 19.4767 7.02067 19.3667 6.91259 19.2868C6.80336 19.2057 6.63602 19.0736 6.54073 18.9937C6.44428 18.9138 6.30832 18.7956 6.11077 18.6172L5.76215 18.6103C5.57041 18.6056 5.31708 18.5952 5.19855 18.5848C5.08002 18.5755 4.93359 18.5616 4.87317 18.5558C4.81274 18.5489 4.66864 18.5303 4.5536 18.5141C4.43855 18.4979 4.25262 18.4666 4.14107 18.4446C4.02951 18.4226 3.85404 18.3832 3.75177 18.3577C3.64951 18.3311 3.47404 18.2801 3.36248 18.2431C3.25092 18.2072 3.1045 18.155 3.0371 18.1284C2.9697 18.1017 2.86279 18.0554 2.79888 18.0253C2.73497 17.9952 2.62457 17.9407 2.55484 17.9037C2.48396 17.8654 2.35381 17.7867 2.26433 17.7276C2.17485 17.6685 2.05748 17.584 2.00286 17.5399C1.94825 17.4971 1.84947 17.4067 1.78207 17.3395C1.71351 17.2723 1.62519 17.1762 1.58452 17.1252C1.54269 17.0743 1.47064 16.9758 1.42299 16.9051C1.37651 16.8356 1.30446 16.7094 1.26379 16.6271C1.22312 16.5437 1.16618 16.4059 1.13829 16.3202C1.10923 16.2344 1.07205 16.1012 1.05578 16.0248C1.04067 15.9483 1.02092 15.836 1.01394 15.7757C1.00581 15.7155 1 15.5719 1 15.4572C1 15.3309 1.00813 15.1896 1.01976 15.0981C1.03138 15.0147 1.05229 14.8896 1.0674 14.8201C1.08251 14.7494 1.10807 14.6452 1.12434 14.5884C1.14061 14.5305 1.17199 14.432 1.1929 14.3683C1.21498 14.3046 1.25682 14.1945 1.28587 14.125C1.31376 14.0544 1.36373 13.9432 1.3951 13.876C1.42648 13.8088 1.48574 13.6941 1.52642 13.6211C1.56709 13.5482 1.63565 13.4277 1.68097 13.3547C1.72513 13.2817 1.80647 13.1566 1.85993 13.0767C1.91455 12.9968 2.01216 12.8613 2.07724 12.7755C2.14115 12.6898 2.25968 12.5404 2.33986 12.4454C2.41888 12.3492 2.55252 12.1963 2.63735 12.1037C2.72102 12.011 2.90811 11.8187 3.31367 11.4144L3.32065 11.2986C3.32529 11.2349 3.33924 11.0889 3.35202 10.9743C3.36364 10.8596 3.39269 10.6534 3.41594 10.5167C3.43802 10.38 3.4752 10.1819 3.49728 10.0765C3.51936 9.97111 3.56119 9.79387 3.59025 9.68267C3.6193 9.57147 3.66927 9.39655 3.70064 9.29461C3.73202 9.19268 3.78431 9.03398 3.81685 8.94131C3.84939 8.84864 3.91098 8.68762 3.95281 8.58221C3.99348 8.4768 4.06669 8.30536 4.11434 8.19995C4.16198 8.09454 4.24217 7.92773 4.2933 7.82927C4.34327 7.73081 4.4188 7.58717 4.4618 7.51072C4.50479 7.43426 4.57916 7.30684 4.62681 7.22691C4.67562 7.14698 4.77207 6.9964 4.84179 6.89098C4.91152 6.78557 5.04399 6.60023 5.13463 6.47976C5.22527 6.35813 5.35659 6.19248 5.42631 6.10908C5.49604 6.02684 5.60759 5.89941 5.67499 5.82528C5.74239 5.7523 5.8679 5.62256 5.95389 5.53568C6.03988 5.44996 6.1712 5.32486 6.24441 5.25767C6.31878 5.19049 6.44661 5.07928 6.52911 5.00978C6.61278 4.94144 6.77198 4.81517 6.88354 4.73177C6.9951 4.64721 7.17871 4.51863 7.29027 4.44449C7.40182 4.37152 7.54592 4.28001 7.60983 4.24178C7.67375 4.20355 7.79693 4.13289 7.88292 4.0854C7.96891 4.03675 8.1072 3.96377 8.19087 3.92207C8.27337 3.88152 8.42328 3.81086 8.52206 3.76569C8.62083 3.72051 8.76958 3.6568 8.85325 3.62436C8.93575 3.59077 9.08217 3.53517 9.17862 3.50042C9.27391 3.46567 9.43893 3.41122 9.54467 3.37995C9.65042 3.34751 9.83519 3.29539 9.95721 3.26527C10.0781 3.23399 10.2698 3.18997 10.3814 3.16796C10.4929 3.14596 10.6707 3.11468 10.7765 3.09846C10.8822 3.08224 11.0461 3.06139 11.1425 3.05097C11.2378 3.04054 11.4086 3.02548 11.5202 3.01738C11.6317 3.00927 11.8432 3.00116 11.9908 3ZM11.2239 4.2441C11.1344 4.25336 10.9647 4.27769 10.8462 4.29738C10.7277 4.31707 10.5417 4.35298 10.4337 4.37731C10.3244 4.40163 10.1524 4.44449 10.0502 4.47461C9.94791 4.50357 9.78057 4.5557 9.67831 4.59045C9.57605 4.6252 9.41336 4.68428 9.31807 4.7225C9.22162 4.76073 9.07869 4.82212 8.9985 4.85803C8.91832 4.89279 8.75331 4.97387 8.63245 5.03642C8.51044 5.09782 8.33032 5.19744 8.23154 5.25767C8.13276 5.31675 7.98286 5.41058 7.90035 5.46618C7.81668 5.52178 7.68653 5.6133 7.60983 5.67121C7.53314 5.72797 7.40531 5.82875 7.32513 5.89362C7.24495 5.95849 7.11131 6.07433 7.0288 6.14962C6.94513 6.22492 6.80685 6.35813 6.72085 6.44617C6.63486 6.53536 6.5082 6.67089 6.43847 6.74966C6.36991 6.82727 6.26532 6.95238 6.20606 7.02651C6.14563 7.10181 6.05615 7.21996 6.00502 7.29062C5.95389 7.36013 5.86906 7.4806 5.81793 7.55705C5.7668 7.6335 5.67732 7.77367 5.62038 7.86981C5.56227 7.9648 5.47396 8.12118 5.42166 8.21732C5.37053 8.31231 5.28686 8.47912 5.23573 8.588C5.18576 8.69573 5.10674 8.87644 5.06258 8.98764C5.01726 9.09885 4.95916 9.2506 4.93243 9.32357C4.90687 9.39655 4.86155 9.53208 4.8325 9.62475C4.80344 9.71742 4.75464 9.89465 4.7221 10.0186C4.69072 10.1425 4.64656 10.336 4.62449 10.4472C4.60241 10.5584 4.57103 10.7414 4.55476 10.8526C4.53849 10.9638 4.51758 11.1411 4.50712 11.2465C4.49782 11.3519 4.48504 11.5627 4.47923 11.7156C4.47225 11.8801 4.47225 12.1048 4.47806 12.2658C4.48388 12.4153 4.49433 12.6006 4.50131 12.6771C4.50828 12.7535 4.52222 12.8833 4.53152 12.9667C4.54198 13.0489 4.55709 13.1462 4.56638 13.181C4.57568 13.2157 4.58265 13.2667 4.58265 13.2933C4.58265 13.3211 4.60124 13.4358 4.62332 13.5482C4.64656 13.6617 4.69189 13.8586 4.72326 13.986C4.7558 14.1135 4.81971 14.3301 4.86387 14.4668C4.90919 14.6034 4.97775 14.7992 5.01843 14.9012C5.05794 15.0031 5.12882 15.1699 5.1753 15.2718C5.22179 15.3738 5.27757 15.4931 5.29965 15.5383L5.34148 15.6193C6.0271 15.6078 6.31878 15.5962 6.43034 15.5858C6.54189 15.5753 6.73015 15.5568 6.84868 15.5441C6.96721 15.5301 7.17057 15.5035 7.30189 15.485C7.4332 15.4664 7.63191 15.4352 7.74347 15.4155C7.85503 15.3969 8.06653 15.3576 8.21411 15.3286C8.36053 15.2996 8.59643 15.2498 8.73704 15.2185C8.87765 15.1861 9.14725 15.1224 9.3355 15.0749C9.52376 15.0274 9.82473 14.9475 10.0037 14.8965C10.1826 14.8455 10.4732 14.7598 10.6486 14.7054C10.8241 14.6521 11.1402 14.549 11.3517 14.4783C11.562 14.4065 11.863 14.3011 12.0199 14.2444C12.1768 14.1864 12.4196 14.0961 12.5602 14.0416C12.7008 13.9884 12.9542 13.8876 13.1238 13.8181C13.2935 13.7497 13.5724 13.6316 13.7455 13.5574C13.9175 13.4833 14.1895 13.3617 14.3498 13.2887C14.509 13.2157 14.8495 13.0524 15.1052 12.9261C15.3608 12.7987 15.6874 12.6319 15.8315 12.5554C15.9756 12.4778 16.1812 12.3643 16.2905 12.3029C16.3985 12.2427 16.6159 12.1164 16.7727 12.0226C16.9296 11.9299 17.1388 11.8013 17.2376 11.7388C17.3363 11.6762 17.5165 11.5581 17.6385 11.477C17.7593 11.3959 17.9371 11.2743 18.0336 11.2059C18.1289 11.1376 18.2706 11.0345 18.3473 10.9766C18.424 10.9187 18.5623 10.8121 18.6553 10.7379C18.7482 10.6638 18.8784 10.5561 18.9458 10.4982C19.0132 10.4402 19.1317 10.3348 19.2096 10.2642L19.3525 10.1344C19.2619 9.78924 19.1991 9.58189 19.1561 9.45099C19.112 9.3201 19.0481 9.14055 19.012 9.05135C18.9772 8.96216 18.9133 8.81389 18.8726 8.72122C18.8319 8.62855 18.7622 8.48259 18.7192 8.39687C18.6762 8.31115 18.6018 8.16983 18.553 8.08411C18.5054 7.99839 18.4194 7.85244 18.3613 7.75977C18.3032 7.6671 18.209 7.52346 18.1521 7.44121C18.094 7.35781 17.9987 7.22807 17.9406 7.15162C17.8813 7.07517 17.7849 6.95469 17.7268 6.88519C17.6675 6.81453 17.542 6.67437 17.4467 6.57243C17.3526 6.47049 17.1922 6.31064 17.0911 6.21681C16.9889 6.12298 16.8483 5.99903 16.7785 5.94112C16.7077 5.88204 16.5694 5.77315 16.4706 5.69902C16.3718 5.62488 16.2277 5.52178 16.151 5.46966C16.0743 5.41869 15.957 5.34339 15.8896 5.30169C15.8222 5.26115 15.6967 5.18817 15.6107 5.13952C15.5247 5.09203 15.3852 5.01789 15.3027 4.97735C15.219 4.93565 15.0831 4.87194 15.0006 4.83487C14.9169 4.79896 14.7844 4.7422 14.7043 4.71092C14.6241 4.67849 14.4672 4.62173 14.3556 4.58466C14.2441 4.54643 14.0686 4.49199 13.9663 4.46419C13.8641 4.43639 13.6991 4.39468 13.6003 4.37268C13.5015 4.35067 13.3237 4.31707 13.2052 4.29738C13.0867 4.27769 12.9193 4.25452 12.8333 4.24525C12.7473 4.23483 12.6032 4.22209 12.5138 4.21514C12.4243 4.20934 12.1919 4.20471 11.9966 4.20471C11.8014 4.20587 11.5841 4.21166 11.5144 4.21629C11.4435 4.22209 11.3133 4.23367 11.2239 4.2441ZM20.8109 7.39835C20.862 7.43542 20.9422 7.50145 20.9899 7.54547C21.0375 7.59064 21.1084 7.66825 21.1479 7.71922C21.1874 7.77019 21.2478 7.85823 21.2804 7.91615C21.3129 7.97291 21.3559 8.06442 21.3757 8.11886C21.3954 8.17331 21.421 8.25903 21.4326 8.30999C21.4454 8.36096 21.4605 8.45247 21.4686 8.51271C21.4768 8.57642 21.4791 8.6772 21.4744 8.75249C21.471 8.82431 21.457 8.93668 21.4442 9.00154C21.4315 9.06757 21.4047 9.17298 21.385 9.23669C21.3652 9.30041 21.3234 9.41277 21.2908 9.48575C21.2595 9.55872 21.2025 9.67572 21.163 9.74638C21.1235 9.81588 21.0538 9.93056 21.0085 10.0012C20.962 10.0707 20.8771 10.1889 20.8214 10.2642C20.7644 10.3383 20.661 10.4657 20.5913 10.548C20.5204 10.6291 20.3693 10.7901 20.2531 10.9048C20.1381 11.0194 19.9731 11.1758 19.8871 11.2523C19.8011 11.3287 19.6547 11.455 19.5617 11.5314C19.4687 11.6079 19.3118 11.733 19.2131 11.8106C19.1143 11.8871 18.947 12.0122 18.8412 12.0886C18.7355 12.1651 18.5495 12.2948 18.4287 12.3782C18.3067 12.4616 18.0952 12.6018 17.958 12.6898C17.8209 12.7767 17.5664 12.9331 17.3944 13.0362C17.2213 13.1393 16.9738 13.2841 16.8425 13.357C16.7111 13.4312 16.4659 13.5644 16.2963 13.6547C16.1266 13.7451 15.821 13.9015 15.6165 14.0023C15.4119 14.1042 15.1238 14.242 14.9773 14.3104C14.8298 14.3787 14.5764 14.4934 14.4137 14.5652C14.251 14.637 13.9733 14.7564 13.7978 14.8293C13.6224 14.9023 13.3632 15.0077 13.2226 15.0633C13.082 15.1189 12.8147 15.2197 12.63 15.2892C12.444 15.3587 12.1779 15.4549 12.0373 15.5035C11.8967 15.5533 11.6643 15.6321 11.5202 15.6796C11.3761 15.7259 11.1483 15.7989 11.0147 15.8406C10.8799 15.8823 10.6347 15.9553 10.4685 16.0039C10.3023 16.0514 10.0304 16.1267 9.86424 16.1707C9.69807 16.2147 9.40755 16.2866 9.2193 16.3317C9.03104 16.3758 8.70682 16.4453 8.49882 16.487C8.2908 16.5287 7.99564 16.5843 7.84225 16.6086C7.68885 16.6341 7.4669 16.6688 7.34837 16.6851C7.22984 16.7013 7.03926 16.7244 6.92421 16.7372C6.80917 16.7499 6.61859 16.7673 6.50006 16.7777C6.38153 16.787 6.12239 16.8009 5.92484 16.8078C5.62502 16.8183 5.50766 16.8171 5.22179 16.8032C4.97659 16.7893 4.8139 16.7742 4.65237 16.7499C4.52803 16.7314 4.3607 16.7013 4.28051 16.6851C4.20033 16.6677 4.07483 16.6352 4.00162 16.6132C3.92841 16.5912 3.81801 16.5553 3.75758 16.5321C3.69716 16.5101 3.58908 16.4638 3.51936 16.4302C3.44847 16.3966 3.33692 16.3329 3.26952 16.2877C3.20212 16.2425 3.10915 16.173 3.06267 16.1325C3.01619 16.092 2.94414 16.0201 2.90463 15.9726C2.86395 15.9252 2.80701 15.8487 2.77912 15.8047C2.75007 15.7595 2.7094 15.69 2.68848 15.6483C2.66757 15.6066 2.63387 15.5209 2.61295 15.4572C2.59087 15.3935 2.5653 15.2915 2.55601 15.2313C2.54555 15.1676 2.53741 15.0541 2.53741 14.9614C2.53741 14.8548 2.54555 14.7587 2.56066 14.666C2.57344 14.5919 2.60946 14.4575 2.63851 14.3683C2.66873 14.2791 2.7338 14.125 2.78261 14.0266C2.83142 13.9281 2.91276 13.7845 2.96157 13.708C3.01038 13.6316 3.07778 13.532 3.11031 13.4879C3.14285 13.4428 3.21374 13.3524 3.26719 13.2852C3.34389 13.1879 3.36364 13.1555 3.36248 13.1254C3.36248 13.1057 3.35783 13.0895 3.35202 13.0906C3.34621 13.0929 3.29508 13.1485 3.2393 13.2157C3.18352 13.2829 3.0801 13.415 3.00805 13.5111C2.936 13.6061 2.83258 13.752 2.77796 13.8354C2.72451 13.9177 2.64432 14.0486 2.60133 14.125C2.55717 14.2015 2.49209 14.3266 2.45491 14.4031C2.41888 14.4795 2.37008 14.5942 2.34567 14.6579C2.32127 14.7216 2.28989 14.8154 2.27362 14.8664C2.25852 14.9174 2.23295 15.0216 2.21785 15.0981C2.20158 15.1745 2.18531 15.3019 2.18182 15.3819C2.17717 15.4722 2.1795 15.5719 2.18879 15.6483C2.19577 15.7155 2.21552 15.814 2.23179 15.8684C2.2469 15.9228 2.27944 16.0086 2.30384 16.0595C2.32708 16.1105 2.36659 16.1835 2.39099 16.2217C2.41656 16.2599 2.47001 16.3329 2.51301 16.3827C2.55484 16.4337 2.63154 16.5113 2.68267 16.5553C2.7338 16.5993 2.83607 16.6758 2.90928 16.7244C2.98249 16.7731 3.09985 16.8426 3.17074 16.8785C3.24046 16.9144 3.36364 16.97 3.44383 17.0036C3.52401 17.036 3.65184 17.0824 3.72853 17.1079C3.80523 17.1322 3.93887 17.1716 4.02486 17.1936C4.11085 17.2167 4.2596 17.2503 4.35605 17.2689C4.45134 17.2886 4.62216 17.3164 4.73372 17.3326C4.84528 17.3488 5.02307 17.3697 5.12882 17.3789C5.23457 17.3893 5.43793 17.4032 5.58203 17.4102C5.74472 17.4183 6.00851 17.4206 6.27927 17.4171C6.51865 17.4125 6.82776 17.4021 6.96489 17.3917C7.10201 17.3824 7.30072 17.3662 7.40647 17.3569C7.51222 17.3465 7.74231 17.3198 7.91778 17.2978C8.09325 17.2758 8.37796 17.2353 8.55111 17.2063C8.72309 17.1785 8.94853 17.1391 9.0508 17.1194C9.15306 17.0997 9.32504 17.0662 9.43428 17.043C9.54235 17.021 9.76547 16.9712 9.92816 16.9329C10.0908 16.8947 10.3442 16.8322 10.4918 16.7939C10.6382 16.7557 10.8764 16.6897 11.0205 16.6491C11.1646 16.6074 11.3912 16.5403 11.526 16.4986C11.6596 16.4569 11.8851 16.3839 12.0257 16.3375C12.1663 16.2912 12.422 16.202 12.5951 16.1406C12.7671 16.0792 13.0367 15.9784 13.1936 15.9182C13.3504 15.858 13.5956 15.7595 13.7397 15.7004C13.8838 15.6414 14.1104 15.5452 14.2452 15.4873C14.3789 15.4282 14.5985 15.3298 14.7333 15.2684C14.8669 15.207 15.1888 15.0517 15.448 14.9232C15.7071 14.7934 16.0418 14.6208 16.1917 14.5397C16.3416 14.4575 16.5717 14.3289 16.703 14.2536C16.8343 14.1772 17.0563 14.0451 17.1969 13.9594C17.3375 13.8737 17.5827 13.7173 17.7431 13.6119C17.9023 13.5076 18.1637 13.3281 18.3241 13.2146C18.4833 13.101 18.7006 12.9423 18.8063 12.8613C18.9121 12.7802 19.0818 12.6458 19.184 12.5624C19.2863 12.479 19.4536 12.3377 19.5559 12.2485C19.6581 12.1593 19.8197 12.0133 19.9161 11.923C20.0114 11.8338 20.1706 11.6774 20.2694 11.5755C20.3682 11.4747 20.5064 11.3264 20.5762 11.2465C20.6459 11.1665 20.7621 11.0287 20.8342 10.9395C20.905 10.8503 21.0038 10.7229 21.0515 10.6557C21.1003 10.5885 21.1781 10.4738 21.2269 10.4009C21.2746 10.3279 21.3466 10.2097 21.3873 10.1402C21.4268 10.0696 21.493 9.94446 21.5326 9.86222C21.5721 9.77881 21.629 9.64676 21.6592 9.56683C21.6894 9.4869 21.7313 9.35369 21.7522 9.27145C21.7731 9.18804 21.7975 9.07105 21.8045 9.01081C21.8126 8.94478 21.8161 8.82431 21.8126 8.70963C21.808 8.55094 21.8022 8.49881 21.7766 8.40266C21.7592 8.33895 21.722 8.23702 21.6929 8.17678C21.6639 8.11655 21.6162 8.03083 21.586 7.98565C21.5558 7.94163 21.4896 7.8617 21.4384 7.80726C21.3873 7.75397 21.3083 7.67984 21.2641 7.64393C21.2188 7.60802 21.1328 7.54547 21.0724 7.50608C21.0119 7.46554 20.912 7.40762 20.8516 7.37518C20.7912 7.34275 20.7249 7.31147 20.7063 7.30684C20.6738 7.29757 20.6726 7.29873 20.6947 7.31495C20.7075 7.32422 20.7598 7.36244 20.8109 7.39835ZM20.0765 8.53588C20.1241 8.65403 20.1776 8.79304 20.1962 8.84516C20.2148 8.89845 20.2334 8.94131 20.238 8.94131C20.2438 8.94131 20.2578 8.90077 20.2705 8.85096C20.2833 8.8023 20.2938 8.72353 20.2938 8.67488C20.2938 8.60306 20.2891 8.57758 20.2624 8.52545C20.2438 8.4907 20.2031 8.43857 20.1718 8.41077C20.1392 8.38297 20.0869 8.34475 20.0556 8.32621C20.023 8.30884 19.9928 8.29262 19.987 8.29262C19.9812 8.29262 19.9789 8.29957 19.9824 8.30652C19.987 8.31463 20.0288 8.41772 20.0765 8.53588ZM18.9923 14.198C18.8807 14.2779 18.6216 14.4529 18.4171 14.5884C18.2125 14.7239 17.9429 14.8965 17.8186 14.973C17.6942 15.0494 17.4955 15.1676 17.377 15.2371C17.2585 15.3054 17.047 15.4259 16.9064 15.5035C16.7658 15.5811 16.5461 15.7004 16.4183 15.7665C16.2905 15.8336 16.0813 15.9414 15.9535 16.0051C15.8256 16.0688 15.6141 16.1707 15.4828 16.2333C15.3515 16.2947 15.1342 16.3955 15.0006 16.4557C14.8658 16.5159 14.6334 16.6179 14.4835 16.6816C14.3336 16.7453 14.0686 16.8542 13.8966 16.9225C13.7235 16.9909 13.4492 17.0974 13.2865 17.1577C13.1238 17.2179 12.8542 17.314 12.6881 17.372C12.5219 17.4287 12.2709 17.5133 12.1303 17.5573C11.9897 17.6025 11.7514 17.6755 11.6015 17.7206C11.4516 17.7647 11.2215 17.8307 11.0902 17.8666C10.9589 17.9025 10.6974 17.9708 10.5092 18.0172C10.3209 18.0647 10.0595 18.1261 9.92816 18.155C9.79684 18.184 9.59813 18.2257 9.48657 18.2477C9.37501 18.2697 9.18095 18.3068 9.05661 18.3288C8.93227 18.352 8.73007 18.3855 8.60921 18.4041C8.48719 18.4226 8.27802 18.4527 8.14438 18.4701C8.00958 18.4875 7.8957 18.5049 7.89105 18.5083C7.88641 18.5118 7.9387 18.5524 8.00726 18.5975C8.07582 18.6427 8.21062 18.7261 8.30707 18.7817C8.40236 18.8385 8.58016 18.9346 8.70218 18.996C8.82303 19.0574 9.0171 19.1466 9.13214 19.1964C9.24719 19.2451 9.41917 19.3134 9.51562 19.3482C9.61091 19.3829 9.76779 19.435 9.86424 19.4652C9.95953 19.4941 10.1304 19.5416 10.2419 19.5694C10.3535 19.5972 10.5104 19.6331 10.5905 19.6493C10.6707 19.6656 10.8009 19.6887 10.8811 19.7015C10.9612 19.7142 11.1204 19.7351 11.2355 19.7478C11.3505 19.7617 11.5574 19.7779 11.6945 19.7849C11.8398 19.793 12.0547 19.7953 12.2058 19.7907C12.3499 19.7872 12.5591 19.7756 12.6706 19.7663C12.7822 19.7559 12.9658 19.7351 13.0774 19.7188C13.1889 19.7038 13.3725 19.6713 13.4841 19.6493C13.5956 19.6262 13.7583 19.5903 13.8443 19.5682C13.9303 19.5451 14.0721 19.5057 14.1581 19.4802C14.2441 19.4547 14.3777 19.4107 14.4544 19.3841C14.5311 19.3563 14.6566 19.3099 14.7333 19.2798C14.81 19.2497 14.9646 19.1837 15.0761 19.1327C15.1877 19.0817 15.3631 18.996 15.4654 18.9416C15.5677 18.886 15.7164 18.8026 15.7966 18.7551C15.8768 18.7064 15.9965 18.6311 16.0639 18.5871C16.1313 18.5419 16.2486 18.4608 16.3253 18.4064C16.402 18.352 16.5299 18.2558 16.61 18.1921C16.6902 18.1284 16.8157 18.0253 16.8889 17.9604C16.9621 17.8967 17.1051 17.7635 17.2073 17.6639C17.3084 17.5654 17.4525 17.416 17.5269 17.3337C17.6013 17.2503 17.7012 17.1368 17.7489 17.0789C17.7965 17.0221 17.9011 16.8889 17.9801 16.7835C18.0591 16.6781 18.173 16.5194 18.2323 16.4302C18.2915 16.341 18.3927 16.1788 18.4577 16.0711C18.5228 15.9622 18.6425 15.7387 18.725 15.573C18.8075 15.4074 18.9098 15.1884 18.9516 15.0865C18.9946 14.9846 19.062 14.8096 19.1015 14.6984C19.1422 14.5872 19.1991 14.4146 19.2282 14.3162C19.2572 14.2177 19.2921 14.0984 19.306 14.0521C19.3235 13.9907 19.3258 13.9687 19.3142 13.9698C19.3072 13.9698 19.277 13.9884 19.2479 14.0115C19.2189 14.0335 19.1038 14.1181 18.9923 14.198ZM3.71575 15.0228C3.7204 15.0517 3.73667 15.0981 3.75177 15.127C3.76804 15.156 3.80174 15.2 3.82731 15.2255C3.85287 15.251 3.87611 15.2684 3.8796 15.2626C3.88309 15.2579 3.85752 15.1745 3.82266 15.0772C3.78896 14.9811 3.75758 14.8873 3.75294 14.8687C3.74945 14.8513 3.74131 14.8374 3.7355 14.8374C3.72853 14.8374 3.7204 14.8676 3.71575 14.9035C3.71226 14.9405 3.71226 14.9938 3.71575 15.0228Z" fill="#D1CBFF"/>
</svg>
