<svg width="25" height="24" viewBox="0 0 25 24" fill="none" xmlns="http://www.w3.org/2000/svg">
<g clip-path="url(#clip0_12166_31535)">
<mask id="mask0_12166_31535" style="mask-type:luminance" maskUnits="userSpaceOnUse" x="0" y="0" width="25" height="25">
<path d="M0.501953 0.000490189H24.502V24.0005H0.501953V0.000490189Z" fill="white"/>
</mask>
<g mask="url(#mask0_12166_31535)">
<path d="M15.3145 12.0005C15.3145 13.5538 14.0553 14.813 12.502 14.813C10.9487 14.813 9.68945 13.5538 9.68945 12.0005C9.68945 10.4472 10.9487 9.18799 12.502 9.18799C14.0553 9.18799 15.3145 10.4472 15.3145 12.0005Z" stroke="#D1CBFF" stroke-width="1.4" stroke-miterlimit="10" stroke-linecap="round" stroke-linejoin="round"/>
<path d="M12.502 7.78174V9.18799" stroke="#D1CBFF" stroke-width="1.4" stroke-miterlimit="10" stroke-linecap="round" stroke-linejoin="round"/>
<path d="M12.502 14.813V16.2192" stroke="#D1CBFF" stroke-width="1.4" stroke-miterlimit="10" stroke-linecap="round" stroke-linejoin="round"/>
<path d="M9.51758 9.01736L10.5119 10.0117" stroke="#D1CBFF" stroke-width="1.4" stroke-miterlimit="10" stroke-linecap="round" stroke-linejoin="round"/>
<path d="M14.4902 13.989L15.4846 14.9834" stroke="#D1CBFF" stroke-width="1.4" stroke-miterlimit="10" stroke-linecap="round" stroke-linejoin="round"/>
<path d="M8.2832 12.0005H9.68945" stroke="#D1CBFF" stroke-width="1.4" stroke-miterlimit="10" stroke-linecap="round" stroke-linejoin="round"/>
<path d="M15.3145 12.0005H16.7207" stroke="#D1CBFF" stroke-width="1.4" stroke-miterlimit="10" stroke-linecap="round" stroke-linejoin="round"/>
<path d="M9.51758 14.9834L10.5119 13.989" stroke="#D1CBFF" stroke-width="1.4" stroke-miterlimit="10" stroke-linecap="round" stroke-linejoin="round"/>
<path d="M14.4902 10.0117L15.4846 9.01736" stroke="#D1CBFF" stroke-width="1.4" stroke-miterlimit="10" stroke-linecap="round" stroke-linejoin="round"/>
<path d="M23.7988 12.0005C23.7988 18.2137 18.7152 23.2974 12.502 23.2974C6.28872 23.2974 1.20508 18.2137 1.20508 12.0005C1.20508 5.7873 6.28872 0.703615 12.502 0.703615C18.7152 0.703615 23.7988 5.7873 23.7988 12.0005Z" stroke="#D1CBFF" stroke-width="1.4" stroke-miterlimit="10" stroke-linecap="round" stroke-linejoin="round"/>
<path d="M12.502 0.703614V4.96924" stroke="#D1CBFF" stroke-width="1.4" stroke-miterlimit="10" stroke-linecap="round" stroke-linejoin="round"/>
<path d="M6.87695 2.25761L8.98572 5.91016" stroke="#D1CBFF" stroke-width="1.4" stroke-miterlimit="10" stroke-linecap="round" stroke-linejoin="round"/>
<path d="M12.502 23.2974V19.0317" stroke="#D1CBFF" stroke-width="1.4" stroke-miterlimit="10" stroke-linecap="round" stroke-linejoin="round"/>
<path d="M16.0195 18.0906L18.1283 21.7432" stroke="#D1CBFF" stroke-width="1.4" stroke-miterlimit="10" stroke-linecap="round" stroke-linejoin="round"/>
<path d="M2.71289 6.37537L6.41227 8.48413" stroke="#D1CBFF" stroke-width="1.4" stroke-miterlimit="10" stroke-linecap="round" stroke-linejoin="round"/>
<path d="M23.7988 12.0005H19.5332" stroke="#D1CBFF" stroke-width="1.4" stroke-miterlimit="10" stroke-linecap="round" stroke-linejoin="round"/>
<path d="M16.0195 5.91016L18.1283 2.25761" stroke="#D1CBFF" stroke-width="1.4" stroke-miterlimit="10" stroke-linecap="round" stroke-linejoin="round"/>
<path d="M18.5918 15.5167L22.2443 17.6255" stroke="#D1CBFF" stroke-width="1.4" stroke-miterlimit="10" stroke-linecap="round" stroke-linejoin="round"/>
<path d="M8.98572 18.0906L6.87695 21.7432" stroke="#D1CBFF" stroke-width="1.4" stroke-miterlimit="10" stroke-linecap="round" stroke-linejoin="round"/>
<path d="M22.2443 6.37537L18.5918 8.48413" stroke="#D1CBFF" stroke-width="1.4" stroke-miterlimit="10" stroke-linecap="round" stroke-linejoin="round"/>
<path d="M6.41227 15.5167L2.75977 17.6255" stroke="#D1CBFF" stroke-width="1.4" stroke-miterlimit="10" stroke-linecap="round" stroke-linejoin="round"/>
<path d="M1.20508 12.0005H5.4707" stroke="#D1CBFF" stroke-width="1.4" stroke-miterlimit="10" stroke-linecap="round" stroke-linejoin="round"/>
<path d="M19.5332 12.0005C19.5332 15.8838 16.3852 19.0317 12.502 19.0317C8.61869 19.0317 5.4707 15.8838 5.4707 12.0005C5.4707 8.11722 8.61869 4.96924 12.502 4.96924C16.3852 4.96924 19.5332 8.11722 19.5332 12.0005Z" stroke="#D1CBFF" stroke-width="1.4" stroke-miterlimit="10" stroke-linecap="round" stroke-linejoin="round"/>
</g>
</g>
<defs>
<clipPath id="clip0_12166_31535">
<rect width="24" height="24" fill="white" transform="translate(0.5)"/>
</clipPath>
</defs>
</svg>
