<svg width="25" height="24" viewBox="0 0 25 24" fill="none" xmlns="http://www.w3.org/2000/svg">
<path d="M14.7298 2.82376C14.7298 3.61195 14.4122 4.3669 13.8489 4.91817L5.02342 13.5544C4.17957 14.384 4.17376 15.7424 5.0105 16.5792C5.84223 17.4109 7.19072 17.4109 8.02245 16.5792L17.0481 7.55347C17.8631 6.73855 19.1843 6.73855 19.9992 7.55347C20.8142 8.36839 20.8142 9.68964 19.9992 10.5046L11.1313 19.3725C10.6919 19.8119 10.4451 20.4078 10.4451 21.0291V21.1398C10.4451 22.3316 11.4113 23.2978 12.6031 23.2978C13.7949 23.2978 14.7611 22.3316 14.7611 21.1398C14.7611 20.5184 14.5142 19.9225 14.0749 19.4832L5.04097 10.4493C4.20719 9.61549 4.21131 8.26236 5.05024 7.43367C5.88188 6.61215 7.22082 6.61627 8.0474 7.44285L17.0666 16.462C17.88 17.2755 19.2001 17.2713 20.0084 16.4528C20.8096 15.6415 20.8054 14.3356 19.9992 13.5294L11.3587 4.88892C10.8092 4.33938 10.5004 3.59402 10.5004 2.81683C10.5004 1.64894 11.4472 0.702148 12.6151 0.702148C13.783 0.702148 14.7298 1.64894 14.7298 2.81683V2.82376Z" stroke="#D1CBFF" stroke-width="1.40439" stroke-miterlimit="10" stroke-linecap="round" stroke-linejoin="round"/>
</svg>
