<svg width="25" height="24" viewBox="0 0 25 24" fill="none" xmlns="http://www.w3.org/2000/svg">
<path d="M6.875 18.75C6.875 20.625 8 21.75 8 21.75L9.12458 20.6257L9.12533 20.6262C9.45936 22.0022 10.25 22.875 10.25 22.875L11.375 21.375L12.5 23.2969L13.625 21.375L14.75 22.875C14.75 22.875 15.5406 22.0022 15.8747 20.6262L15.8754 20.6256L17 21.75C17 21.75 18.125 20.625 18.125 18.75" stroke="#D1CBFF" stroke-width="1.4" stroke-miterlimit="10" stroke-linecap="round" stroke-linejoin="round"/>
<path d="M15.0782 17.9292C14.4591 18.6606 13.5342 19.1249 12.501 19.1249C11.4678 19.1249 10.543 18.6606 9.92383 17.9293" stroke="#D1CBFF" stroke-width="1.4" stroke-miterlimit="10" stroke-linecap="round" stroke-linejoin="round"/>
<path d="M11.0008 2.03662C9.74913 2.31548 8.6882 2.93967 7.87891 3.7875" stroke="#D1CBFF" stroke-width="1.4" stroke-miterlimit="10" stroke-linecap="round" stroke-linejoin="round"/>
<path d="M17.1528 3.82017C16.3364 2.95219 15.2589 2.31384 13.9844 2.0332" stroke="#D1CBFF" stroke-width="1.4" stroke-miterlimit="10" stroke-linecap="round" stroke-linejoin="round"/>
<path d="M4.64014 11.3425C4.04609 12.3413 3.5 13.6317 3.5 15C3.5 17.25 5 18.75 7.625 18.75C9.875 18.75 11 16.5 12.5 16.5C14 16.5 15.125 18.75 17.375 18.75C20 18.75 21.5 17.25 21.5 15C21.5 13.6339 20.9557 12.3456 20.3628 11.3475" stroke="#D1CBFF" stroke-width="1.4" stroke-miterlimit="10" stroke-linecap="round" stroke-linejoin="round"/>
<path d="M15.6387 11.1595C16.3317 11.6869 17.1966 12 18.1346 12C20.4127 12 22.2596 10.1532 22.2596 7.875C22.2596 6.89353 21.9168 5.99208 21.3444 5.28394" stroke="#D1CBFF" stroke-width="1.4" stroke-miterlimit="10" stroke-linecap="round" stroke-linejoin="round"/>
<path d="M18.125 9.375C18.9534 9.375 19.625 8.70343 19.625 7.875C19.625 7.04657 18.9534 6.375 18.125 6.375C17.2966 6.375 16.625 7.04657 16.625 7.875C16.625 8.70343 17.2966 9.375 18.125 9.375Z" stroke="#D1CBFF" stroke-width="1.4" stroke-miterlimit="10" stroke-linecap="round" stroke-linejoin="round"/>
<path d="M12.5 3.70312C13.3284 3.70312 14 3.03155 14 2.20312C14 1.3747 13.3284 0.703125 12.5 0.703125C11.6716 0.703125 11 1.3747 11 2.20312C11 3.03155 11.6716 3.70312 12.5 3.70312Z" stroke="#D1CBFF" stroke-width="1.4" stroke-miterlimit="10" stroke-linecap="round" stroke-linejoin="round"/>
<path d="M18.1251 3.75C14.4692 3.75 13.9904 6.375 14.0001 7.86666V11.25H15.1251C15.9536 11.25 16.6251 10.5784 16.6251 9.75V7.875C16.6251 7.04658 17.2967 6.375 18.1251 6.375H18.1355C18.5509 6.375 18.6902 6.375 19.2501 6.375C21.5001 6.375 23.0001 3 23.0001 0.75C22.6147 1.875 20.0001 3.75 18.1251 3.75Z" stroke="#D1CBFF" stroke-width="1.4" stroke-miterlimit="10" stroke-linecap="round" stroke-linejoin="round"/>
<path d="M6.875 9.375C7.70343 9.375 8.375 8.70343 8.375 7.875C8.375 7.04657 7.70343 6.375 6.875 6.375C6.04657 6.375 5.375 7.04657 5.375 7.875C5.375 8.70343 6.04657 9.375 6.875 9.375Z" stroke="#D1CBFF" stroke-width="1.4" stroke-miterlimit="10" stroke-linecap="round" stroke-linejoin="round"/>
<path d="M14 14.25C14.8284 14.25 15.5 13.5784 15.5 12.75C15.5 11.9216 14.8284 11.25 14 11.25C13.1716 11.25 12.5 11.9216 12.5 12.75C12.5 13.5784 13.1716 14.25 14 14.25Z" stroke="#D1CBFF" stroke-width="1.4" stroke-miterlimit="10" stroke-linecap="round" stroke-linejoin="round"/>
<path d="M11 14.25C11.8284 14.25 12.5 13.5784 12.5 12.75C12.5 11.9216 11.8284 11.25 11 11.25C10.1716 11.25 9.5 11.9216 9.5 12.75C9.5 13.5784 10.1716 14.25 11 14.25Z" stroke="#D1CBFF" stroke-width="1.4" stroke-miterlimit="10" stroke-linecap="round" stroke-linejoin="round"/>
<path d="M6.875 3.75C10.5309 3.75 11.0098 6.375 11 7.86666V11.25H9.875C9.04658 11.25 8.375 10.5784 8.375 9.75V7.875C8.375 7.04658 7.70342 6.375 6.875 6.375H6.86459C6.44928 6.375 6.30992 6.375 5.75 6.375C3.5 6.375 2 3 2 0.75C2.38541 1.875 5 3.75 6.875 3.75Z" stroke="#D1CBFF" stroke-width="1.4" stroke-miterlimit="10" stroke-linecap="round" stroke-linejoin="round"/>
<path d="M3.66125 5.28906C3.09134 5.9965 2.75 6.89575 2.75 7.87488C2.75 10.153 4.59683 11.9999 6.875 11.9999C7.81156 11.9999 8.67509 11.6875 9.36748 11.1617" stroke="#D1CBFF" stroke-width="1.4" stroke-miterlimit="10" stroke-linecap="round" stroke-linejoin="round"/>
</svg>
