<svg width="25" height="24" viewBox="0 0 25 24" fill="none" xmlns="http://www.w3.org/2000/svg">
<g clip-path="url(#clip0_12166_31624)">
<mask id="mask0_12166_31624" style="mask-type:luminance" maskUnits="userSpaceOnUse" x="0" y="0" width="25" height="25">
<path d="M0.501953 0.000490189H24.502V24.0005H0.501953V0.000490189Z" fill="white"/>
</mask>
<g mask="url(#mask0_12166_31624)">
<path d="M23.448 9.16066C23.6819 10.0752 23.8002 11.0155 23.8002 11.9595C23.8002 18.1986 18.7424 23.2563 12.5033 23.2563C8.98336 23.2563 5.66461 21.6156 3.52734 18.8189" stroke="#D1CBFF" stroke-width="1.4" stroke-miterlimit="22.926" stroke-linecap="round" stroke-linejoin="round"/>
<path d="M11.1704 14.4368C10.2584 13.9465 9.68945 12.9949 9.68945 11.9595C9.68945 10.4062 10.9487 9.14692 12.502 9.14692C14.0552 9.14692 15.3145 10.4062 15.3145 11.9595C15.3145 12.8609 14.8824 13.7077 14.1525 14.2367" stroke="#D1CBFF" stroke-width="1.4" stroke-miterlimit="22.926" stroke-linecap="round" stroke-linejoin="round"/>
<path d="M13.9199 3.5945C15.9211 3.93373 17.7344 4.97914 19.0307 6.54102" stroke="#D1CBFF" stroke-width="1.4" stroke-miterlimit="22.926" stroke-linecap="round" stroke-linejoin="round"/>
<path d="M7.15234 10.0784C7.95077 7.80728 10.0959 6.28763 12.5032 6.28763C13.4697 6.28763 14.4203 6.53467 15.2646 7.00524" stroke="#D1CBFF" stroke-width="1.4" stroke-miterlimit="22.926" stroke-linecap="round" stroke-linejoin="round"/>
<path d="M4.27994 14.053C4.1057 13.3687 4.01758 12.6654 4.01758 11.9594C4.01758 7.79868 7.03473 4.25193 11.1416 3.58481V0.746808" stroke="#D1CBFF" stroke-width="1.4" stroke-miterlimit="22.926" stroke-linecap="round" stroke-linejoin="round"/>
<path d="M20.8626 10.5093C20.9456 10.9882 20.9874 11.4733 20.9874 11.9594C20.9874 15.8684 18.3166 19.2716 14.5195 20.2007" stroke="#D1CBFF" stroke-width="1.4" stroke-miterlimit="22.926" stroke-linecap="round" stroke-linejoin="round"/>
<path d="M9.49309 19.8923C8.16325 19.3879 6.98153 18.5573 6.05664 17.4768" stroke="#D1CBFF" stroke-width="1.4" stroke-miterlimit="22.926" stroke-linecap="round" stroke-linejoin="round"/>
<path d="M16.5625 15.9194C15.4951 17.0141 14.0308 17.6313 12.5019 17.6313C9.8725 17.6313 7.58791 15.8243 6.98242 13.2656" stroke="#D1CBFF" stroke-width="1.4" stroke-miterlimit="22.926" stroke-linecap="round" stroke-linejoin="round"/>
<path d="M17.6719 9.62399C18.0035 10.358 18.175 11.1541 18.175 11.9595C18.175 12.4786 18.1038 12.9953 17.9632 13.4951" stroke="#D1CBFF" stroke-width="1.4" stroke-miterlimit="22.926" stroke-linecap="round" stroke-linejoin="round"/>
<path d="M2.14192 16.4639C1.52397 15.0426 1.20508 13.5093 1.20508 11.9595C1.20508 6.24662 5.47005 1.43293 11.1414 0.744899" stroke="#D1CBFF" stroke-width="1.4" stroke-miterlimit="22.926" stroke-linecap="round" stroke-linejoin="round"/>
<path d="M13.9297 0.753126C17.4403 1.20022 20.5385 3.26656 22.3003 6.33594" stroke="#D1CBFF" stroke-width="1.4" stroke-miterlimit="22.926" stroke-linecap="round" stroke-linejoin="round"/>
<path d="M6.51953 5.94202L8.32366 7.74609" stroke="#D1CBFF" stroke-width="1.4" stroke-miterlimit="22.926" stroke-linecap="round" stroke-linejoin="round"/>
<path d="M15.2637 7.00513L17.0491 4.92814" stroke="#D1CBFF" stroke-width="1.4" stroke-miterlimit="22.926" stroke-linecap="round" stroke-linejoin="round"/>
<path d="M17.9609 13.4952L20.4717 14.168" stroke="#D1CBFF" stroke-width="1.4" stroke-miterlimit="22.926" stroke-linecap="round" stroke-linejoin="round"/>
<path d="M23.4464 9.16059L20.8613 10.5093" stroke="#D1CBFF" stroke-width="1.4" stroke-miterlimit="22.926" stroke-linecap="round" stroke-linejoin="round"/>
<path d="M6.05789 17.4768L3.52734 18.8188" stroke="#D1CBFF" stroke-width="1.4" stroke-miterlimit="22.926" stroke-linecap="round" stroke-linejoin="round"/>
<path d="M16.3453 19.2251L15.0723 17.0201" stroke="#D1CBFF" stroke-width="1.4" stroke-miterlimit="22.926" stroke-linecap="round" stroke-linejoin="round"/>
<path d="M18.877 18.2876L20.0254 19.436" stroke="#D1CBFF" stroke-width="1.4" stroke-miterlimit="22.926" stroke-linecap="round" stroke-linejoin="round"/>
<path d="M13.9297 0.753113V3.6626" stroke="#D1CBFF" stroke-width="1.4" stroke-miterlimit="22.926" stroke-linecap="round" stroke-linejoin="round"/>
</g>
</g>
<defs>
<clipPath id="clip0_12166_31624">
<rect width="24" height="24" fill="white" transform="translate(0.5)"/>
</clipPath>
</defs>
</svg>
