<svg width="25" height="24" viewBox="0 0 25 24" fill="none" xmlns="http://www.w3.org/2000/svg">
<g clip-path="url(#clip0_12166_31726)">
<mask id="mask0_12166_31726" style="mask-type:luminance" maskUnits="userSpaceOnUse" x="0" y="0" width="25" height="25">
<path d="M0.501953 0.000490189H24.502V24.0005H0.501953V0.000490189Z" fill="white"/>
</mask>
<g mask="url(#mask0_12166_31726)">
<path d="M12.502 16.2192V18.5492C12.502 19.3258 11.8723 19.9692 11.0957 19.9692H4.5332V13.4067C4.5332 12.6301 5.17661 12.0005 5.95323 12.0005H8.2832" stroke="#D1CBFF" stroke-width="1.4" stroke-miterlimit="10" stroke-linecap="round" stroke-linejoin="round"/>
<path d="M19.0507 12.0005C19.8273 12.0005 20.4707 11.3709 20.4707 10.5942V4.03174H13.9082C13.1316 4.03174 12.502 4.67515 12.502 5.45177M12.502 5.45177V7.78174M12.502 5.45177C12.502 4.67515 11.8723 4.03174 11.0957 4.03174H4.5332V10.5942C4.5332 11.3709 5.17661 12.0005 5.95323 12.0005H8.2832" stroke="#D1CBFF" stroke-width="1.4" stroke-miterlimit="10" stroke-linecap="round" stroke-linejoin="round"/>
<path d="M12.502 16.2192V18.5492C12.502 19.3258 13.1316 19.9692 13.9082 19.9692H20.4707V13.4067C20.4707 12.6301 19.8273 12.0005 19.0507 12.0005H16.7207" stroke="#D1CBFF" stroke-width="1.4" stroke-miterlimit="10" stroke-linecap="round" stroke-linejoin="round"/>
<path d="M15.3145 14.813L17.1326 16.6311M17.1326 16.6311C17.6818 17.1803 18.5721 17.1803 19.1213 16.6311L23.7988 12.0005L19.1213 7.36985C18.5721 6.82066 17.6818 6.82066 17.1326 7.36985M17.1326 16.6311C17.6818 17.1803 17.6818 18.0707 17.1326 18.6198L12.502 23.2974L7.87131 18.6198C7.32212 18.0707 7.32212 17.1803 7.87131 16.6311M17.1326 7.36985L15.3145 9.18799M17.1326 7.36985C17.6818 6.82066 17.6818 5.93032 17.1326 5.38113L12.502 0.703615L7.87131 5.38113C7.32212 5.93032 7.32212 6.82066 7.87131 7.36985M7.87131 7.36985L9.68945 9.18799M7.87131 7.36985C7.32212 6.82066 6.43178 6.82066 5.88259 7.36985L1.20508 12.0005L5.88259 16.6311C6.43178 17.1803 7.32212 17.1803 7.87131 16.6311M7.87131 16.6311L9.68945 14.813" stroke="#D1CBFF" stroke-width="1.4" stroke-miterlimit="10" stroke-linecap="round" stroke-linejoin="round"/>
<path d="M15.3145 13.4067L16.7207 12.0005L15.3145 10.5942V9.18799H13.9082L12.502 7.78174L11.0957 9.18799H9.68945V10.5942L8.2832 12.0005L9.68945 13.4067V14.813H11.0957L12.502 16.2192L13.9082 14.813H15.3145V13.4067Z" stroke="#D1CBFF" stroke-width="1.4" stroke-miterlimit="10" stroke-linecap="round" stroke-linejoin="round"/>
</g>
</g>
<defs>
<clipPath id="clip0_12166_31726">
<rect width="24" height="24" fill="white" transform="translate(0.5)"/>
</clipPath>
</defs>
</svg>
